<?xml version="1.0" encoding="UTF-8" ?>
<!DOCTYPE svg PUBLIC "-//W3C//DTD SVG 1.1//EN" "http://www.w3.org/Graphics/SVG/1.1/DTD/svg11.dtd">
<svg width="230pt" height="73pt" viewBox="0 0 230 73" version="1.1" xmlns="http://www.w3.org/2000/svg">
<g id="#13ece5ff">
<path fill="#13ece5" opacity="1.00" d=" M 16.25 18.28 C 25.95 12.79 37.50 15.23 48.10 14.80 C 47.66 16.25 47.33 17.74 46.74 19.14 C 42.36 19.86 37.89 19.39 33.48 19.47 C 33.51 26.12 33.52 32.78 33.48 39.43 C 36.31 39.24 39.16 39.27 42.00 39.19 C 41.75 40.62 41.51 42.06 41.26 43.49 C 38.67 43.50 36.09 43.50 33.50 43.50 C 33.46 48.66 33.78 53.90 32.65 58.97 C 32.35 60.28 30.89 60.80 30.04 61.71 C 28.60 60.58 27.16 59.45 25.70 58.35 C 26.54 57.63 27.33 56.86 28.10 56.06 C 28.87 52.11 28.38 48.05 28.49 44.05 C 25.54 44.00 23.44 42.45 22.68 39.63 C 24.62 39.50 26.56 39.35 28.50 39.20 C 28.50 32.53 28.51 25.86 28.49 19.19 C 23.97 20.05 18.76 20.89 15.98 25.02 C 12.56 30.50 14.04 37.90 18.70 42.20 C 17.73 43.46 16.75 44.72 15.76 45.96 C 6.83 39.53 6.81 24.21 16.25 18.28 Z" />
<path fill="#13ece5" opacity="1.00" d=" M 99.59 23.05 C 99.63 20.00 101.10 16.75 104.06 15.54 C 107.00 14.90 109.86 17.33 110.14 20.23 C 111.62 28.63 108.68 36.94 105.55 44.61 C 104.18 47.82 103.32 52.14 106.12 54.86 C 108.02 54.80 109.69 53.81 111.37 53.05 C 111.95 48.50 112.18 43.66 114.81 39.73 C 117.61 35.31 122.90 32.89 128.07 33.32 C 128.66 34.58 129.25 35.83 129.84 37.09 C 126.93 37.44 123.61 37.18 121.22 39.20 C 117.20 42.50 115.41 48.75 117.66 53.52 C 119.15 56.03 121.87 54.04 123.48 52.81 C 123.52 48.16 123.47 43.51 123.55 38.86 C 125.09 39.47 126.63 40.07 128.17 40.71 C 128.30 45.52 128.51 50.32 128.61 55.12 C 130.03 54.47 132.03 54.42 132.81 52.85 C 135.68 47.07 134.38 40.46 134.46 34.26 C 135.78 34.26 137.10 34.25 138.42 34.25 C 138.75 35.54 139.08 36.83 139.41 38.13 C 141.62 35.81 144.17 32.16 147.88 33.55 C 150.32 34.03 150.91 36.87 151.14 38.96 C 151.44 44.46 150.98 49.99 151.64 55.48 C 152.84 54.71 154.08 53.99 155.15 53.04 C 156.17 49.77 155.44 46.22 156.35 42.90 C 157.38 38.29 160.77 33.40 165.94 33.26 C 170.36 32.76 174.22 40.65 168.88 42.15 C 167.71 40.31 166.54 38.46 165.17 36.76 C 160.72 40.29 160.56 46.50 161.77 51.58 C 163.82 56.00 171.22 55.70 173.13 51.28 C 174.32 46.94 173.55 42.00 176.19 38.11 C 178.01 35.02 181.78 32.28 185.47 33.66 C 188.90 35.36 189.34 39.91 188.10 43.16 C 187.01 46.80 183.78 49.03 180.73 50.94 C 180.56 51.45 180.23 52.48 180.06 53.00 C 183.02 54.31 187.53 56.26 189.87 52.92 C 193.65 47.17 195.92 40.13 195.34 33.19 C 197.36 31.87 199.57 30.02 202.09 31.33 C 201.87 33.53 201.49 35.71 201.43 37.92 C 202.67 41.04 205.26 43.42 206.48 46.56 C 207.21 48.67 207.44 50.91 207.86 53.10 C 210.16 50.75 212.28 48.22 214.40 45.71 C 215.53 48.26 215.58 51.41 213.30 53.34 C 210.10 55.94 205.85 56.64 202.09 58.11 C 199.76 59.11 197.24 58.65 194.89 58.00 C 190.65 56.46 186.48 59.61 182.19 58.58 C 179.83 57.89 177.98 56.16 176.02 54.75 C 173.32 56.63 170.51 58.97 167.00 58.78 C 163.65 59.17 160.74 57.24 158.06 55.53 C 156.16 56.80 154.41 58.81 151.95 58.79 C 149.69 59.07 148.17 57.08 146.51 55.91 C 146.41 49.66 146.68 43.40 146.35 37.15 C 143.07 37.51 141.58 40.82 140.23 43.40 C 138.58 48.42 139.49 53.81 139.22 59.00 C 137.50 58.58 135.80 58.12 134.11 57.62 C 131.70 58.31 129.14 59.04 126.66 58.16 C 123.83 57.14 121.04 58.70 118.20 58.70 C 116.43 58.17 114.80 57.26 113.14 56.48 C 110.55 57.49 107.98 59.24 105.08 58.71 C 103.24 58.18 101.80 56.84 100.23 55.82 C 97.39 57.35 94.37 59.14 91.01 58.78 C 87.93 58.81 85.48 56.72 82.96 55.26 C 79.81 56.83 76.69 59.23 72.96 58.80 C 69.89 58.82 67.43 56.76 64.88 55.33 C 62.73 56.65 60.75 58.71 58.08 58.78 C 54.86 59.22 51.62 56.38 51.74 53.12 C 51.37 48.08 53.16 43.26 54.65 38.53 C 52.98 38.51 51.32 38.49 49.66 38.46 C 49.37 42.61 48.56 46.69 47.71 50.75 C 46.60 50.59 45.49 50.43 44.39 50.27 C 44.78 46.15 45.17 42.03 45.51 37.91 C 44.48 36.64 43.44 35.37 42.39 34.12 C 42.68 33.49 43.26 32.24 43.55 31.61 C 44.22 31.26 45.58 30.57 46.26 30.23 C 47.76 31.55 49.09 33.21 50.94 34.07 C 53.49 34.65 57.29 33.37 58.66 36.35 C 58.39 42.54 55.41 48.53 56.81 54.82 C 58.15 54.72 59.49 54.61 60.82 54.48 C 63.56 49.30 61.45 42.87 64.90 37.96 C 66.76 34.55 70.74 33.10 74.44 33.08 C 75.96 35.34 77.93 37.81 77.35 40.72 C 76.83 45.80 72.57 49.12 68.59 51.68 C 70.66 54.60 74.69 55.86 77.82 53.79 C 81.53 51.57 80.14 46.69 81.03 43.16 C 81.80 37.57 86.49 33.09 92.15 32.77 C 93.93 35.11 96.24 37.66 95.44 40.86 C 94.87 45.97 90.54 49.26 86.45 51.71 C 88.10 53.02 89.63 55.03 91.99 54.79 C 96.03 55.17 99.19 51.33 99.42 47.55 C 99.71 39.39 99.29 31.21 99.59 23.05 M 104.58 19.08 C 103.66 25.87 103.54 32.77 104.56 39.56 C 106.07 33.18 107.21 26.62 106.47 20.05 C 105.84 19.73 105.21 19.41 104.58 19.08 M 179.28 48.04 C 183.03 45.37 184.53 40.78 183.62 36.32 C 179.49 38.73 178.84 43.69 179.28 48.04 M 67.57 48.53 C 71.01 45.72 73.48 41.54 72.36 36.95 C 67.36 38.54 67.68 44.32 67.57 48.53 M 85.63 48.22 C 87.05 46.78 88.71 45.53 89.77 43.78 C 90.71 41.48 90.42 38.93 90.54 36.51 C 86.01 38.63 85.66 43.88 85.63 48.22 M 195.99 52.37 C 198.00 52.85 200.00 53.40 202.04 53.77 C 204.12 49.45 202.10 44.57 198.73 41.58 C 197.31 45.03 196.48 48.68 195.99 52.37 Z" />
</g>
</svg>
