<?xml version="1.0" encoding="UTF-8" ?>
<!DOCTYPE svg PUBLIC "-//W3C//DTD SVG 1.1//EN" "http://www.w3.org/Graphics/SVG/1.1/DTD/svg11.dtd">
<svg width="512pt" height="512pt" viewBox="0 0 512 512" version="1.1" xmlns="http://www.w3.org/2000/svg">
<g id="#fd8469ff">
</g>
<g id="#2b3b4eff">
<path fill="#2b3b4e" opacity="1.00" d=" M 189.34 102.46 C 192.37 98.04 197.70 95.50 203.02 95.60 C 263.02 95.57 323.01 95.59 383.01 95.59 C 389.85 95.27 396.64 99.56 398.97 106.05 C 401.71 113.00 398.66 121.54 392.21 125.26 C 386.36 128.91 379.21 127.15 372.73 127.65 C 319.70 127.74 266.68 127.74 213.66 127.65 C 206.89 127.16 199.27 129.03 193.37 124.73 C 186.20 120.07 184.20 109.34 189.34 102.46 Z" />
<path fill="#2b3b4e" opacity="1.00" d=" M 193.97 386.88 C 199.83 383.04 207.11 384.85 213.66 384.35 C 266.72 384.27 319.79 384.25 372.84 384.36 C 379.52 384.82 387.03 383.02 392.88 387.18 C 399.84 391.60 402.13 401.73 397.63 408.67 C 394.65 413.72 388.79 416.62 382.99 416.41 C 322.99 416.41 262.99 416.43 202.99 416.40 C 196.69 416.57 190.49 412.82 187.89 407.05 C 184.49 400.04 187.28 390.85 193.97 386.88 Z" />
</g>
<g id="#ffffffff">
<path fill="#ffffff" opacity="1.00" d=" M 213.66 127.65 C 266.68 127.74 319.70 127.74 372.73 127.65 C 372.69 139.76 373.61 152.04 371.08 163.97 C 368.63 175.07 363.72 185.62 356.73 194.59 C 351.30 201.78 344.44 207.69 337.98 213.93 C 330.31 221.29 322.50 228.52 314.90 235.96 C 309.01 241.64 305.37 249.86 306.21 258.12 C 306.82 265.91 311.33 272.83 316.92 278.05 C 327.91 288.41 339.03 298.64 349.90 309.12 C 364.61 323.30 373.24 343.51 373.17 363.95 C 373.01 370.74 373.61 377.62 372.84 384.36 C 319.79 384.25 266.72 384.27 213.66 384.35 C 213.53 376.22 213.56 368.08 213.68 359.95 C 214.10 355.03 214.69 350.10 215.98 345.31 C 217.09 340.85 218.66 336.53 220.61 332.37 C 224.85 323.00 231.15 314.68 238.51 307.54 C 249.74 296.82 261.20 286.33 272.39 275.57 C 277.97 269.88 281.42 261.86 280.60 253.83 C 280.05 247.31 276.80 241.33 272.47 236.54 C 261.45 225.86 250.10 215.52 238.99 204.94 C 231.30 197.75 224.83 189.21 220.51 179.59 C 218.48 175.22 216.94 170.63 215.70 165.98 C 214.69 161.41 214.04 156.76 213.71 152.09 C 213.51 143.94 213.56 135.79 213.66 127.65 M 242.85 178.83 C 245.80 184.44 249.48 189.59 253.83 194.21 C 265.56 206.49 277.51 218.58 289.20 230.92 C 289.16 252.60 289.21 274.28 289.18 295.96 C 289.31 301.05 287.03 306.01 283.62 309.69 C 279.81 313.73 274.13 314.60 269.10 316.27 C 259.33 319.74 250.51 326.05 244.40 334.46 C 236.83 344.39 234.38 357.17 234.77 369.43 C 273.42 369.82 312.12 369.49 350.79 369.59 C 350.90 360.93 350.40 352.03 347.23 343.87 C 341.80 329.95 329.24 319.43 314.98 315.42 C 311.85 314.42 308.46 314.08 305.65 312.28 C 299.94 309.03 296.63 302.44 296.82 295.94 C 296.78 274.28 296.85 252.62 296.79 230.96 C 307.48 219.61 318.44 208.52 329.24 197.28 C 334.71 191.80 339.59 185.73 343.15 178.83 C 309.71 178.80 276.28 178.80 242.85 178.83 M 279.18 286.26 C 276.29 288.28 279.84 292.80 282.56 290.50 C 285.13 288.35 281.84 284.07 279.18 286.26 M 269.37 298.43 C 266.59 299.60 265.97 303.74 268.31 305.65 C 270.70 308.03 275.21 306.32 275.53 302.98 C 276.11 299.71 272.32 296.93 269.37 298.43 M 311.40 298.48 C 307.60 300.47 307.53 306.60 311.31 308.65 C 315.20 311.33 321.07 307.66 320.30 302.98 C 320.07 298.81 314.89 296.23 311.40 298.48 Z" />
</g>
<g id="#f8d97fff">
<path fill="#f8d97f" opacity="1.00" d=" M 116.08 184.11 C 140.15 157.39 178.35 144.63 213.66 151.43 L 213.71 152.09 C 214.04 156.76 214.69 161.41 215.70 165.98 C 210.43 165.76 205.29 164.43 200.02 164.24 C 181.16 163.06 161.96 167.82 145.94 177.88 C 126.16 190.06 111.33 210.04 105.51 232.53 C 100.71 250.69 101.65 270.31 108.16 287.92 C 115.19 306.95 128.70 323.51 145.98 334.14 C 166.55 347.05 192.42 351.21 215.98 345.31 C 214.69 350.10 214.10 355.03 213.68 359.95 L 213.60 360.59 C 191.40 364.63 167.88 361.56 147.64 351.49 C 116.80 336.65 94.17 306.02 89.33 272.11 C 84.30 240.73 94.40 207.35 116.08 184.11 Z" />
<path fill="#f8d97f" opacity="1.00" d=" M 164.87 181.75 C 181.00 175.26 199.32 174.24 216.03 179.07 C 217.48 179.51 219.00 179.61 220.51 179.59 C 224.83 189.21 231.30 197.75 238.99 204.94 C 250.10 215.52 261.45 225.86 272.47 236.54 C 273.32 243.34 274.62 250.11 274.34 257.00 C 274.43 263.26 272.99 269.37 272.39 275.57 C 261.20 286.33 249.74 296.82 238.51 307.54 C 231.15 314.68 224.85 323.00 220.61 332.37 C 217.93 332.17 215.39 333.08 212.85 333.74 C 187.94 339.97 160.33 332.84 141.32 315.66 C 125.50 301.65 115.50 281.19 114.58 260.04 C 113.71 244.08 117.84 227.91 126.27 214.33 C 135.21 199.71 148.94 188.08 164.87 181.75 M 191.22 193.83 C 191.22 196.26 191.15 198.69 191.05 201.13 C 183.50 202.11 175.68 203.74 169.56 208.57 C 163.27 213.04 158.97 220.19 158.29 227.91 C 157.30 236.38 159.54 245.89 166.44 251.45 C 173.64 256.92 182.47 259.52 191.04 262.01 C 191.31 271.68 191.24 281.37 191.07 291.05 C 181.48 289.38 172.83 284.33 165.45 278.15 C 161.31 282.13 157.77 286.73 154.15 291.19 C 164.31 300.28 177.30 305.93 190.83 307.45 C 191.50 311.18 191.05 314.98 191.21 318.74 C 194.40 318.87 197.59 318.87 200.78 318.77 C 200.86 315.20 200.75 311.64 200.91 308.09 C 207.38 307.16 214.02 306.11 219.77 302.78 C 227.80 298.59 233.46 290.31 234.47 281.31 C 235.37 273.41 234.09 264.53 228.24 258.68 C 220.90 251.45 210.65 248.55 200.98 245.92 C 200.64 236.54 200.83 227.14 200.88 217.76 C 208.53 218.70 215.68 221.98 222.08 226.17 C 225.96 222.02 229.21 217.14 232.12 212.26 C 222.87 205.93 212.04 202.32 200.95 201.10 C 200.84 198.69 200.77 196.28 200.80 193.88 C 197.63 193.36 194.40 193.47 191.22 193.83 Z" />
<path fill="#f8d97f" opacity="1.00" d=" M 181.66 225.63 C 183.95 222.85 187.67 222.24 191.06 222.04 C 191.29 229.70 191.23 237.38 191.09 245.04 C 186.99 243.52 182.39 241.96 179.85 238.15 C 177.58 234.23 178.22 228.70 181.66 225.63 Z" />
<path fill="#f8d97f" opacity="1.00" d=" M 200.06 263.73 C 203.98 264.87 208.07 266.14 211.15 268.95 C 214.54 272.40 214.66 278.18 212.13 282.15 C 209.22 285.72 204.50 286.95 200.14 287.61 C 199.86 279.66 199.99 271.69 200.06 263.73 Z" />
</g>
<g id="#f5b947ff">
<path fill="#f5b947" opacity="1.00" d=" M 145.94 177.88 C 161.96 167.82 181.16 163.06 200.02 164.24 C 205.29 164.43 210.43 165.76 215.70 165.98 C 216.94 170.63 218.48 175.22 220.51 179.59 C 219.00 179.61 217.48 179.51 216.03 179.07 C 199.32 174.24 181.00 175.26 164.87 181.75 C 148.94 188.08 135.21 199.71 126.27 214.33 C 117.84 227.91 113.71 244.08 114.58 260.04 C 115.50 281.19 125.50 301.65 141.32 315.66 C 160.33 332.84 187.94 339.97 212.85 333.74 C 215.39 333.08 217.93 332.17 220.61 332.37 C 218.66 336.53 217.09 340.85 215.98 345.31 C 192.42 351.21 166.55 347.05 145.98 334.14 C 128.70 323.51 115.19 306.95 108.16 287.92 C 101.65 270.31 100.71 250.69 105.51 232.53 C 111.33 210.04 126.16 190.06 145.94 177.88 Z" />
<path fill="#f5b947" opacity="1.00" d=" M 191.22 193.83 C 194.40 193.47 197.63 193.36 200.80 193.88 C 200.77 196.28 200.84 198.69 200.95 201.10 C 212.04 202.32 222.87 205.93 232.12 212.26 C 229.21 217.14 225.96 222.02 222.08 226.17 C 215.68 221.98 208.53 218.70 200.88 217.76 C 200.83 227.14 200.64 236.54 200.98 245.92 C 210.65 248.55 220.90 251.45 228.24 258.68 C 234.09 264.53 235.37 273.41 234.47 281.31 C 233.46 290.31 227.80 298.59 219.77 302.78 C 214.02 306.11 207.38 307.16 200.91 308.09 C 200.75 311.64 200.86 315.20 200.78 318.77 C 197.59 318.87 194.40 318.87 191.21 318.74 C 191.05 314.98 191.50 311.18 190.83 307.45 C 177.30 305.93 164.31 300.28 154.15 291.19 C 157.77 286.73 161.31 282.13 165.45 278.15 C 172.83 284.33 181.48 289.38 191.07 291.05 C 191.24 281.37 191.31 271.68 191.04 262.01 C 182.47 259.52 173.64 256.92 166.44 251.45 C 159.54 245.89 157.30 236.38 158.29 227.91 C 158.97 220.19 163.27 213.04 169.56 208.57 C 175.68 203.74 183.50 202.11 191.05 201.13 C 191.15 198.69 191.22 196.26 191.22 193.83 M 181.66 225.63 C 178.22 228.70 177.58 234.23 179.85 238.15 C 182.39 241.96 186.99 243.52 191.09 245.04 C 191.23 237.38 191.29 229.70 191.06 222.04 C 187.67 222.24 183.95 222.85 181.66 225.63 M 200.06 263.73 C 199.99 271.69 199.86 279.66 200.14 287.61 C 204.50 286.95 209.22 285.72 212.13 282.15 C 214.66 278.18 214.54 272.40 211.15 268.95 C 208.07 266.14 203.98 264.87 200.06 263.73 Z" />
<path fill="#f5b947" opacity="1.00" d=" M 274.34 257.00 C 274.62 250.11 273.32 243.34 272.47 236.54 C 276.80 241.33 280.05 247.31 280.60 253.83 C 281.42 261.86 277.97 269.88 272.39 275.57 C 272.99 269.37 274.43 263.26 274.34 257.00 Z" />
</g>
<g id="#54c0ebff">
<path fill="#54c0eb" opacity="1.00" d=" M 242.85 178.83 C 276.28 178.80 309.71 178.80 343.15 178.83 C 339.59 185.73 334.71 191.80 329.24 197.28 C 318.44 208.52 307.48 219.61 296.79 230.96 C 296.85 252.62 296.78 274.28 296.82 295.94 C 296.63 302.44 299.94 309.03 305.65 312.28 C 308.46 314.08 311.85 314.42 314.98 315.42 C 329.24 319.43 341.80 329.95 347.23 343.87 C 350.40 352.03 350.90 360.93 350.79 369.59 C 312.12 369.49 273.42 369.82 234.77 369.43 C 234.38 357.17 236.83 344.39 244.40 334.46 C 250.51 326.05 259.33 319.74 269.10 316.27 C 274.13 314.60 279.81 313.73 283.62 309.69 C 287.03 306.01 289.31 301.05 289.18 295.96 C 289.21 274.28 289.16 252.60 289.20 230.92 C 277.51 218.58 265.56 206.49 253.83 194.21 C 249.48 189.59 245.80 184.44 242.85 178.83 Z" />
<path fill="#54c0eb" opacity="1.00" d=" M 279.18 286.26 C 281.84 284.07 285.13 288.35 282.56 290.50 C 279.84 292.80 276.29 288.28 279.18 286.26 Z" />
<path fill="#54c0eb" opacity="1.00" d=" M 269.37 298.43 C 272.32 296.93 276.11 299.71 275.53 302.98 C 275.21 306.32 270.70 308.03 268.31 305.65 C 265.97 303.74 266.59 299.60 269.37 298.43 Z" />
<path fill="#54c0eb" opacity="1.00" d=" M 311.40 298.48 C 314.89 296.23 320.07 298.81 320.30 302.98 C 321.07 307.66 315.20 311.33 311.31 308.65 C 307.53 306.60 307.60 300.47 311.40 298.48 Z" />
</g>
</svg>
