<?xml version="1.0" encoding="UTF-8" ?>
<svg width="336pt" height="73pt" viewBox="0 0 336 73" version="1.1" xmlns="http://www.w3.org/2000/svg">
<g id="#ffffffff">
<path fill="#ffffff" opacity="1.00" d=" M 271.00 46.87 C 288.16 34.74 304.71 21.76 322.08 9.94 C 314.11 26.26 305.02 42.01 296.82 58.22 C 287.18 56.02 277.77 52.86 268.33 49.92 C 268.07 48.47 270.17 47.84 271.00 46.87 Z" />
</g>
<g id="#8cacc0ff">
<path fill="#8cacc0" opacity="1.00" d=" M 302.00 12.99 C 311.02 9.23 319.87 5.04 329.02 1.60 C 323.97 12.17 317.99 22.27 312.67 32.70 C 308.90 40.17 304.78 47.46 300.96 54.91 C 299.92 56.85 298.93 58.85 297.48 60.52 C 292.58 60.02 287.94 58.07 283.18 56.84 C 278.25 62.23 273.57 67.86 268.38 73.00 L 267.01 73.00 C 263.31 65.63 259.87 58.12 256.14 50.78 C 254.91 48.06 251.75 47.49 249.21 46.64 C 244.22 45.24 239.22 43.84 234.31 42.14 C 237.86 40.37 241.37 38.53 245.05 37.06 C 264.11 29.20 282.96 20.88 302.00 12.99 M 271.00 46.87 C 270.17 47.84 268.07 48.47 268.33 49.92 C 277.77 52.86 287.18 56.02 296.82 58.22 C 305.02 42.01 314.11 26.26 322.08 9.94 C 304.71 21.76 288.16 34.74 271.00 46.87 M 293.00 19.01 C 275.59 26.73 257.86 33.72 240.52 41.60 C 245.31 43.33 250.09 45.20 255.13 46.05 C 257.62 45.68 259.69 44.06 261.82 42.84 C 273.88 35.15 286.27 28.01 298.39 20.42 C 303.52 17.18 308.97 14.45 313.83 10.82 C 306.66 12.91 299.92 16.23 293.00 19.01 M 257.24 47.98 C 259.96 54.06 263.14 59.93 265.82 66.04 C 265.36 60.66 263.95 55.34 264.20 49.93 C 265.16 48.36 266.82 47.40 268.26 46.31 C 275.16 41.61 281.68 36.39 288.50 31.57 C 294.13 27.46 299.94 23.54 305.16 18.91 C 289.08 28.41 273.23 38.30 257.24 47.98 M 266.13 51.50 C 266.96 57.52 267.68 63.54 268.55 69.55 C 272.92 65.33 276.89 60.73 281.08 56.32 C 276.12 54.63 271.09 53.18 266.13 51.50 Z" />
</g>
<g id="#fefefeff">
<path fill="#fefefe" opacity="1.00" d=" M 293.00 19.01 C 299.92 16.23 306.66 12.91 313.83 10.82 C 308.97 14.45 303.52 17.18 298.39 20.42 C 286.27 28.01 273.88 35.15 261.82 42.84 C 259.69 44.06 257.62 45.68 255.13 46.05 C 250.09 45.20 245.31 43.33 240.52 41.60 C 257.86 33.72 275.59 26.73 293.00 19.01 Z" />
<path fill="#fefefe" opacity="1.00" d=" M 266.13 51.50 C 271.09 53.18 276.12 54.63 281.08 56.32 C 276.89 60.73 272.92 65.33 268.55 69.55 C 267.68 63.54 266.96 57.52 266.13 51.50 Z" />
</g>
<g id="#14ece5ff">
<path fill="#14ece5" opacity="1.00" d=" M 16.88 17.86 C 26.39 12.78 37.54 15.36 47.83 14.65 C 47.45 16.25 48.06 18.53 46.18 19.32 C 41.94 19.78 37.67 19.39 33.42 19.37 C 33.41 26.04 33.35 32.72 33.48 39.39 C 36.32 39.37 39.17 39.35 42.01 39.34 C 41.77 40.71 41.52 42.08 41.27 43.46 C 38.64 43.53 36.02 43.57 33.39 43.62 C 33.29 49.12 34.00 54.75 32.38 60.10 C 31.72 60.47 30.41 61.21 29.75 61.58 C 28.40 60.35 26.98 59.21 25.47 58.20 C 26.43 57.53 27.40 56.87 28.36 56.20 C 28.44 52.09 28.44 47.98 28.44 43.87 C 27.04 43.53 25.43 43.75 24.19 42.93 C 23.63 41.82 23.26 40.63 22.84 39.46 C 24.69 39.41 26.54 39.37 28.39 39.34 C 28.45 32.64 28.47 25.94 28.38 19.23 C 24.33 20.08 19.78 20.58 16.90 23.92 C 13.96 26.80 14.01 31.24 14.39 35.04 C 14.65 37.95 17.06 39.96 18.78 42.10 C 17.82 43.35 16.86 44.59 15.90 45.84 C 6.38 39.57 6.94 23.42 16.88 17.86 Z" />
</g>
<g id="#13ece5ff">
<path fill="#13ece5" opacity="1.00" d=" M 99.60 22.94 C 99.59 19.96 101.03 16.76 103.92 15.57 C 106.85 14.79 109.65 17.06 110.13 19.91 C 111.76 28.66 108.56 37.33 105.30 45.32 C 104.03 48.17 103.62 51.87 105.57 54.51 C 107.84 55.29 109.87 54.04 111.49 52.59 C 112.03 48.25 112.09 43.52 114.72 39.82 C 117.60 35.53 122.86 32.44 128.13 33.56 C 128.82 34.69 129.31 35.92 129.81 37.15 C 127.11 37.49 124.07 37.03 121.76 38.77 C 117.85 41.43 116.26 46.58 116.74 51.13 C 117.17 52.70 117.89 55.04 119.97 54.71 C 121.54 54.91 122.43 53.28 123.57 52.50 C 123.45 48.01 123.43 43.52 123.50 39.04 C 125.09 39.55 127.06 39.59 128.13 41.09 C 128.61 45.66 128.21 50.27 128.54 54.86 C 130.02 54.42 132.17 54.78 132.77 52.97 C 135.82 47.21 134.24 40.43 134.50 34.20 C 135.80 34.25 137.11 34.30 138.42 34.36 C 138.79 35.67 139.15 36.98 139.51 38.30 C 141.38 35.89 143.54 32.67 147.09 33.38 C 149.93 33.38 150.98 36.59 151.15 38.92 C 151.54 44.28 151.04 49.67 151.54 55.03 C 153.64 54.86 155.82 53.30 155.64 50.98 C 155.63 46.21 155.92 41.09 158.99 37.17 C 160.90 34.20 164.62 32.58 168.08 33.61 C 170.70 34.97 172.16 38.27 171.18 41.10 C 170.30 41.42 169.40 41.66 168.48 41.80 C 167.12 40.29 166.88 36.21 164.09 37.81 C 160.45 41.16 161.00 46.73 161.55 51.19 C 163.44 56.13 171.23 55.86 173.27 51.18 C 174.24 46.63 173.54 41.44 176.58 37.55 C 178.52 34.52 182.29 32.18 185.89 33.81 C 189.65 36.21 189.21 41.63 187.25 45.06 C 185.91 47.94 183.06 49.51 180.42 51.02 C 180.40 51.48 180.36 52.41 180.34 52.87 C 182.67 54.54 185.63 55.32 188.42 54.33 C 190.10 53.12 191.09 51.21 192.00 49.39 C 194.09 44.36 196.13 39.00 195.21 33.44 C 197.21 32.22 200.30 28.72 202.05 32.03 C 201.98 34.03 201.46 35.98 201.32 37.98 C 202.71 41.17 205.53 43.54 206.66 46.87 C 207.32 48.88 207.45 51.02 207.77 53.10 C 210.08 50.90 212.22 48.53 214.10 45.94 C 217.11 49.58 213.91 53.94 210.22 55.29 C 207.12 56.39 204.00 57.43 200.89 58.46 C 197.18 59.92 193.60 56.30 189.93 57.80 C 187.20 58.60 184.26 59.30 181.46 58.40 C 179.37 57.58 177.73 55.97 175.99 54.59 C 173.46 56.77 170.57 59.04 167.02 58.81 C 163.56 59.28 160.65 57.26 158.00 55.36 C 156.20 56.84 154.47 59.03 151.89 58.83 C 149.42 59.23 148.00 56.96 146.48 55.48 C 146.54 49.56 146.57 43.64 146.38 37.73 C 145.85 37.64 144.80 37.46 144.27 37.37 C 142.25 39.94 139.92 42.58 139.50 45.96 C 139.02 50.21 139.35 54.51 139.26 58.78 C 137.51 58.65 135.72 58.46 134.23 57.44 C 131.78 58.31 129.11 59.36 126.58 58.10 C 124.02 56.78 121.48 58.56 118.91 58.83 C 116.77 58.72 115.12 57.19 113.19 56.43 C 110.80 57.26 108.66 59.17 105.97 58.82 C 103.57 58.91 101.95 56.92 100.21 55.61 C 96.29 58.79 90.27 60.30 85.92 57.09 C 84.61 56.45 83.18 54.48 81.71 55.85 C 79.05 57.49 76.23 59.29 72.93 58.81 C 69.76 59.06 67.49 56.61 64.86 55.31 C 62.65 56.55 60.83 58.94 58.07 58.82 C 54.77 59.21 51.80 56.36 51.64 53.15 C 51.33 48.11 53.19 43.31 54.64 38.58 C 52.96 38.57 51.28 38.56 49.60 38.54 C 49.44 42.67 48.66 46.74 47.62 50.74 C 46.53 50.58 45.44 50.42 44.34 50.26 C 44.80 46.12 45.31 41.99 45.48 37.82 C 44.44 36.60 43.42 35.37 42.40 34.14 C 42.69 33.50 43.27 32.21 43.56 31.57 C 44.24 31.25 45.62 30.61 46.31 30.29 C 47.71 31.52 49.05 32.82 50.42 34.10 C 53.20 34.56 58.28 33.10 58.75 37.08 C 58.15 42.95 55.24 48.71 56.98 54.69 C 58.16 54.66 59.35 54.63 60.53 54.60 C 63.98 50.04 61.25 43.87 64.26 39.12 C 66.06 35.20 70.01 32.81 74.34 33.16 C 75.87 35.16 77.88 37.28 77.42 40.03 C 77.19 45.14 73.30 49.15 68.84 51.16 C 70.09 55.79 76.79 55.84 79.36 52.40 C 81.11 50.34 80.33 47.42 80.75 44.96 C 81.09 38.94 85.69 32.42 92.35 33.14 C 93.63 34.95 95.69 36.58 95.52 39.03 C 95.85 44.68 91.48 49.29 86.53 51.32 C 87.92 53.04 89.44 55.19 91.99 54.72 C 96.39 55.32 99.39 50.80 99.53 46.87 C 99.76 38.90 99.42 30.91 99.60 22.94 M 104.56 19.17 L 104.56 19.45 C 103.50 26.02 103.70 32.72 104.40 39.32 C 104.96 37.61 105.76 35.90 105.63 34.06 C 106.84 29.42 106.87 24.61 106.37 19.87 C 105.92 19.70 105.01 19.35 104.56 19.17 M 85.65 48.15 C 87.40 46.51 89.65 44.99 90.26 42.51 C 90.62 40.68 90.52 38.80 90.53 36.94 C 85.66 38.09 85.87 44.23 85.65 48.15 M 67.59 48.18 C 71.08 45.81 73.56 41.72 72.32 37.41 C 67.31 37.61 67.79 44.59 67.59 48.18 M 179.23 47.78 C 183.28 45.55 184.53 40.98 183.52 36.71 C 179.04 38.55 179.18 43.74 179.23 47.78 M 198.70 41.86 C 197.13 45.14 196.43 48.74 196.06 52.33 C 197.99 52.85 199.91 53.46 201.90 53.75 C 204.21 49.71 202.38 44.42 198.70 41.86 Z" />
</g>
<g id="#e4f9f9ff">
</g>
<g id="#fdfdfdff">
<path fill="#fdfdfd" opacity="1.00" d=" M 257.24 47.98 C 273.23 38.30 289.08 28.41 305.16 18.91 C 299.94 23.54 294.13 27.46 288.50 31.57 C 281.68 36.39 275.16 41.61 268.26 46.31 C 266.82 47.40 265.16 48.36 264.20 49.93 C 263.95 55.34 265.36 60.66 265.82 66.04 C 263.14 59.93 259.96 54.06 257.24 47.98 Z" />
</g>
<g id="#a9e1dfff">
</g>
<g id="#fbfdfdff">
</g>
<g id="#fcfcfcff">
</g>
</svg>
