<?xml version="1.0" encoding="UTF-8" ?>
<!DOCTYPE svg PUBLIC "-//W3C//DTD SVG 1.1//EN" "http://www.w3.org/Graphics/SVG/1.1/DTD/svg11.dtd">
<svg width="100pt" height="100pt" viewBox="0 0 150 150" version="1.1" xmlns="http://www.w3.org/2000/svg">
<g id="#a47dffff">
<path fill="#a47dff" opacity="1.00" d=" M 17.08 68.15 C 55.05 52.14 93.02 36.09 130.99 20.10 C 132.89 18.84 135.73 20.87 134.87 23.05 C 126.48 55.58 117.99 88.09 109.52 120.60 C 109.31 122.87 106.32 123.50 104.72 122.23 C 95.76 117.29 86.83 112.28 77.84 107.41 C 72.30 114.69 66.83 122.02 61.23 129.25 C 60.08 131.07 57.13 130.48 56.45 128.55 C 50.34 114.34 44.78 99.88 38.52 85.75 C 31.08 81.42 23.42 77.46 15.99 73.12 C 14.12 71.85 15.03 68.71 17.08 68.15 M 64.09 92.99 C 77.68 100.60 91.33 108.12 104.99 115.60 C 112.23 87.77 119.51 59.95 126.62 32.08 C 105.64 52.24 84.94 72.69 64.09 92.99 M 92.43 42.52 C 69.91 52.20 47.20 61.48 24.77 71.36 C 30.19 74.27 35.54 77.30 40.97 80.19 C 59.83 67.66 78.58 54.97 97.40 42.38 C 99.32 41.14 101.26 39.91 102.95 38.37 C 99.28 39.30 95.95 41.17 92.43 42.52 M 44.72 84.74 C 48.53 94.08 52.37 103.41 56.24 112.73 C 56.60 105.90 55.58 98.84 56.76 92.16 C 73.34 75.68 90.21 59.48 106.91 43.10 C 86.09 56.84 65.47 70.90 44.72 84.74 M 62.12 98.75 C 62.07 105.43 62.10 112.12 62.11 118.81 C 65.81 114.21 69.29 109.43 72.87 104.73 C 69.33 102.66 65.76 100.63 62.12 98.75 Z" />
</g>
<g id="#61dafbff">
<path fill="#61dafb" opacity="1.00" d=" M 64.09 92.99 C 84.94 72.69 105.64 52.24 126.62 32.08 C 119.51 59.95 112.23 87.77 104.99 115.60 C 91.33 108.12 77.68 100.60 64.09 92.99 Z" />
<path fill="#61dafb" opacity="1.00" d=" M 92.43 42.52 C 95.95 41.17 99.28 39.30 102.95 38.37 C 101.26 39.91 99.32 41.14 97.40 42.38 C 78.58 54.97 59.83 67.66 40.97 80.19 C 35.54 77.30 30.19 74.27 24.77 71.36 C 47.20 61.48 69.91 52.20 92.43 42.52 Z" />
<path fill="#61dafb" opacity="1.00" d=" M 62.12 98.75 C 65.76 100.63 69.33 102.66 72.87 104.73 C 69.29 109.43 65.81 114.21 62.11 118.81 C 62.10 112.12 62.07 105.43 62.12 98.75 Z" />
</g>
</svg>
