<?xml version="1.0" encoding="iso-8859-1"?>
<!-- Generator: Adobe Illustrator 19.0.0, SVG Export Plug-In . SVG Version: 6.00 Build 0)  -->
<svg version="1.1" id="Layer_1" xmlns="http://www.w3.org/2000/svg" xmlns:xlink="http://www.w3.org/1999/xlink" x="0px" y="0px"
	 viewBox="0 0 480.008 480.008" style="enable-background:new 0 0 480.008 480.008;" xml:space="preserve">
<path style="fill:#AFCEE6;" d="M392.004,64h48c17.68,0,32,14.32,32,32v16"/>
<path id="SVGCleanerId_0" style="fill:#132C47;" d="M472.004,120c-4.416,0-8-3.584-8-8V96c0-13.232-10.768-24-24-24h-48
	c-4.416,0-8-3.584-8-8s3.584-8,8-8h48c22.056,0,40,17.944,40,40v16C480.004,116.416,476.42,120,472.004,120z"/>
<path style="fill:#AFCEE6;" d="M472.004,96c0-17.672-14.328-32-32-32h-248c-17.672,0-32,14.328-32,32v344c0,17.672,14.328,32,32,32
	h248c17.672,0,32-14.328,32-32V96z"/>
<path style="fill:#BFD8EB;" d="M440.004,64h-248c-17.672,0-32,14.328-32,32v16c0-17.672,14.328-32,32-32h248
	c17.672,0,32,14.328,32,32V96C472.004,78.328,457.676,64,440.004,64z"/>
<g>
	<path id="SVGCleanerId_0_1_" style="fill:#132C47;" d="M472.004,120c-4.416,0-8-3.584-8-8V96c0-13.232-10.768-24-24-24h-48
		c-4.416,0-8-3.584-8-8s3.584-8,8-8h48c22.056,0,40,17.944,40,40v16C480.004,116.416,476.42,120,472.004,120z"/>
</g>
<path style="fill:#132C47;" d="M440.004,480h-248c-22.056,0-40-17.944-40-40V96c0-22.056,17.944-40,40-40h248
	c22.056,0,40,17.944,40,40v344C480.004,462.056,462.06,480,440.004,480z M192.004,72c-13.232,0-24,10.768-24,24v344
	c0,13.232,10.768,24,24,24h248c13.232,0,24-10.768,24-24V96c0-13.232-10.768-24-24-24H192.004z"/>
<path id="SVGCleanerId_1" style="fill:#132C47;" d="M424.004,112h-216c-4.416,0-8-3.584-8-8V80c0-13.232,10.768-24,24-24h9.968
	l11.056-38.6C247.884,7.176,257.372,0,268.084,0h95.84c10.712,0,20.192,7.176,23.064,17.448L398.036,56h9.968
	c13.232,0,24,10.768,24,24v24C432.004,108.416,428.42,112,424.004,112z M216.004,96h200V80c0-4.408-3.592-8-8-8h-16
	c-3.568,0-6.704-2.36-7.688-5.8l-12.72-44.4c-0.96-3.432-4.104-5.8-7.672-5.8h-95.84c-3.56,0-6.704,2.368-7.656,5.752L247.692,66.2
	c-0.984,3.44-4.12,5.8-7.688,5.8h-16c-4.408,0-8,3.592-8,8V96z"/>
<g>
	<path style="fill:#3684C1;" d="M424.004,80v24h-216V80c0-8.8,7.2-16,16-16h16l12.72-44.4c1.92-6.88,8.24-11.6,15.36-11.6h95.84
		c7.12,0,13.44,4.72,15.36,11.6l12.72,44.4h16C416.804,64,424.004,71.2,424.004,80z"/>
	<path style="fill:#3684C1;" d="M392.004,64l-12.72-44.4c-1.92-6.88-8.24-11.6-15.36-11.6h-95.84c-7.12,0-13.44,4.72-15.36,11.6
		L240.004,64h-16c-8.8,0-16,7.2-16,16v24h216V80c0-8.8-7.2-16-16-16H392.004z"/>
</g>
<path style="fill:#5E9DCD;" d="M408.004,64h-16l-12.72-44.4c-1.92-6.88-8.24-11.6-15.36-11.6h-95.84c-7.12,0-13.44,4.72-15.36,11.6
	L240.004,64h-16c-8.8,0-16,7.2-16,16v16c0-8.8,7.2-16,16-16h16l12.72-44.4c1.92-6.88,8.24-11.6,15.36-11.6h95.84
	c7.12,0,13.44,4.72,15.36,11.6l12.72,44.4h16c8.8,0,16,7.2,16,16V80C424.004,71.2,416.804,64,408.004,64z"/>
<g>
	<path id="SVGCleanerId_1_1_" style="fill:#132C47;" d="M424.004,112h-216c-4.416,0-8-3.584-8-8V80c0-13.232,10.768-24,24-24h9.968
		l11.056-38.6C247.884,7.176,257.372,0,268.084,0h95.84c10.712,0,20.192,7.176,23.064,17.448L398.036,56h9.968
		c13.232,0,24,10.768,24,24v24C432.004,108.416,428.42,112,424.004,112z M216.004,96h200V80c0-4.408-3.592-8-8-8h-16
		c-3.568,0-6.704-2.36-7.688-5.8l-12.72-44.4c-0.96-3.432-4.104-5.8-7.672-5.8h-95.84c-3.56,0-6.704,2.368-7.656,5.752L247.692,66.2
		c-0.984,3.44-4.12,5.8-7.688,5.8h-16c-4.408,0-8,3.592-8,8V96z"/>
</g>
<path style="fill:#F7FAFD;" d="M333.604,52.16c0,9.12-7.36,16.48-16.56,16.48c-9.12,0-16.48-7.36-16.48-16.48
	c0-9.2,7.36-16.56,16.48-16.56C326.244,35.6,333.604,42.96,333.604,52.16z"/>
<path id="SVGCleanerId_2" style="fill:#132C47;" d="M317.044,76.64c-13.504,0-24.48-10.984-24.48-24.48
	c0-13.544,10.984-24.56,24.48-24.56c13.544,0,24.56,11.016,24.56,24.56C341.604,65.664,330.588,76.64,317.044,76.64z M317.044,43.6
	c-4.752,0-8.48,3.76-8.48,8.56c0,4.672,3.808,8.48,8.48,8.48c4.8,0,8.56-3.728,8.56-8.48C325.604,47.36,321.844,43.6,317.044,43.6z"
	/>
<g>
	<path id="SVGCleanerId_2_1_" style="fill:#132C47;" d="M317.044,76.64c-13.504,0-24.48-10.984-24.48-24.48
		c0-13.544,10.984-24.56,24.48-24.56c13.544,0,24.56,11.016,24.56,24.56C341.604,65.664,330.588,76.64,317.044,76.64z M317.044,43.6
		c-4.752,0-8.48,3.76-8.48,8.56c0,4.672,3.808,8.48,8.48,8.48c4.8,0,8.56-3.728,8.56-8.48C325.604,47.36,321.844,43.6,317.044,43.6z
		"/>
</g>
<path style="fill:#AD4826;" d="M28.324,231.92c-2.8-3.44-2.32-8.48,1.04-11.28l10-8.32c3.36-2.8,8.4-2.32,11.2,1.04l13.44,16.08
	L41.764,248L28.324,231.92z"/>
<path style="fill:#AD3C2B;" d="M41.764,248l-13.44-16.08c-2.8-3.44-2.32-8.48,1.04-11.28l10-8.32c3.36-2.8,8.4-2.32,11.2,1.04
	l13.44,16.08L41.764,248z"/>
<path style="fill:#AD4826;" d="M232.644,205.12l10,8.32c3.36,2.8,3.84,7.84,1.04,11.2l-13.44,16.16l-22.24-18.56l13.44-16.08
	C224.244,202.72,229.284,202.32,232.644,205.12z"/>
<path style="fill:#AD3C2B;" d="M230.244,240.8l13.44-16.16c2.8-3.36,2.32-8.4-1.04-11.2l-10-8.32c-3.36-2.8-8.4-2.4-11.2,1.04
	l-13.44,16.08L230.244,240.8z"/>
<circle style="fill:#E65039;" cx="140.004" cy="340" r="132"/>
<path style="fill:#EB7361;" d="M140.004,224c70.176,0,127.44,54.864,131.592,124c0.16-2.664,0.408-5.296,0.408-8
	c0-72.88-59.12-132-132-132s-132,59.12-132,132c0,2.704,0.248,5.336,0.408,8C12.564,278.864,69.828,224,140.004,224z"/>
<path style="fill:#132C47;" d="M140.004,476c-74.992,0-136-61.008-136-136s61.008-136,136-136s136,61.008,136,136
	S214.996,476,140.004,476z M140.004,212c-70.576,0-128,57.424-128,128s57.424,128,128,128s128-57.424,128-128
	S210.58,212,140.004,212z"/>
<circle style="fill:#FFFFFF;" cx="139.028" cy="339.04" r="93"/>
<g>
	<path style="fill:#132C47;" d="M199.348,351.12c-2.12-0.488-3.6-2.536-3.312-4.568c0.376-2.024,2.304-3.56,4.48-3.408
		c2.272,0.16,3.92,2.224,3.496,4.6C203.684,350.12,201.572,351.632,199.348,351.12z"/>
	<path style="fill:#132C47;" d="M193.932,366.144c-1.968-1.048-2.848-3.392-1.952-5.248c0.808-1.888,3.008-2.896,5.144-2.16
		c2.08,0.712,3.2,3.168,2.256,5.376C198.348,366.28,195.9,367.184,193.932,366.144z"/>
	<path style="fill:#132C47;" d="M184.82,379.248c-1.672-1.544-1.752-3.904-0.536-5.568c1.232-1.648,3.728-1.968,5.576-0.72
		s2.184,3.816,0.744,5.736C189.172,380.624,186.412,380.728,184.82,379.248z"/>
	<path style="fill:#132C47;" d="M172.684,389.608c-1.168-1.848-0.736-4.28,0.88-5.56c1.68-1.192,4.144-0.896,5.584,0.744
		c1.496,1.712,1.192,4.32-0.76,5.728C176.5,392.008,173.9,391.528,172.684,389.608z"/>
	<path style="fill:#132C47;" d="M158.276,396.496c-0.664-2.128,0.36-4.432,2.296-5.136c1.944-0.68,4.176,0.056,5.176,2.104
		c0.968,1.952,0.08,4.576-2.184,5.384C161.308,399.688,158.94,398.624,158.276,396.496z"/>
	<path style="fill:#132C47;" d="M145.372,399.216c-0.184-2.184,1.296-4.272,3.336-4.568c2.048-0.232,4.08,1.04,4.616,3.208
		c0.536,2.16-0.912,4.464-3.296,4.76C147.644,402.96,145.564,401.472,145.372,399.216z"/>
	<path style="fill:#132C47;" d="M129.412,398.656c0.384-2.216,2.336-3.688,4.376-3.448c2.056,0.096,3.688,1.992,3.648,4.224
		c-0.04,2.232-2.016,3.944-4.408,3.816C130.644,402.976,129.028,400.832,129.412,398.656z"/>
	<path style="fill:#132C47;" d="M114.116,394.104c0.928-1.992,3.192-2.92,5.144-2.272c1.92,0.728,3,3.008,2.4,5.104
		c-0.624,2.192-2.968,3.304-5.216,2.464C114.164,398.624,113.164,396.152,114.116,394.104z"/>
	<path style="fill:#132C47;" d="M100.508,385.744c1.424-1.712,3.92-2.112,5.568-0.872c1.608,1.288,2.216,3.536,1.04,5.496
		c-1.112,1.864-3.816,2.568-5.704,1.08C99.476,390.016,99.084,387.456,100.508,385.744z"/>
	<path style="fill:#132C47;" d="M89.556,374.128c1.824-1.296,4.272-0.984,5.536,0.632c1.392,1.52,1.208,4.016-0.384,5.568
		s-4.208,1.376-5.816-0.4C87.404,378.04,87.748,375.408,89.556,374.128z"/>
	<path style="fill:#132C47;" d="M82.964,362.712c2.048-0.872,4.44-0.08,5.328,1.776s0.352,4.16-1.576,5.36
		c-1.848,1.16-4.528,0.52-5.584-1.64C80.084,366.048,80.908,363.584,82.964,362.712z"/>
	<path style="fill:#132C47;" d="M78.548,347.376c2.248-0.32,4.152,1.104,4.64,3.096c0.52,1.992-0.8,4.128-2.936,4.776
		c-2.128,0.648-4.352-0.712-4.944-3.04C74.748,349.88,76.38,347.68,78.548,347.376z"/>
	<path style="fill:#132C47;" d="M78.124,331.416c2.152,0.256,3.912,2.144,3.8,4.192c-0.176,2.056-1.88,3.784-4.088,3.864
		c-2.248,0.08-4.168-1.8-3.976-4.2C73.988,332.88,75.852,331.144,78.124,331.416z"/>
	<path style="fill:#132C47;" d="M81.924,315.904c2.072,0.824,3.176,3.064,2.464,4.992c-0.512,1.992-2.688,3.2-4.856,2.704
		s-3.456-2.784-2.848-5.104C77.5,316.232,79.852,315.08,81.924,315.904z"/>
	<path style="fill:#132C47;" d="M89.556,301.888c1.824,1.352,2.144,3.688,1.144,5.488c-1.064,1.76-3.536,2.336-5.504,1.296
		c-1.968-1.04-2.568-3.552-1.312-5.608C85.06,300.968,87.804,300.584,89.556,301.888z"/>
	<path style="fill:#132C47;" d="M98.404,292.12c1.48,1.696,1.384,4.136-0.08,5.576c-1.376,1.528-3.888,1.592-5.592,0.152
		s-1.784-4.048-0.16-5.816C94.284,290.352,96.956,290.456,98.404,292.12z"/>
	<path style="fill:#132C47;" d="M111.588,283.128c0.984,2.008,0.24,4.28-1.48,5.416c-1.752,1.08-4.24,0.424-5.488-1.352
		c-1.312-1.872-0.664-4.336,1.376-5.592C108.02,280.288,110.612,281.144,111.588,283.128z"/>
	<path style="fill:#132C47;" d="M126.644,277.808c0.432,2.184-0.832,4.384-2.824,4.888c-2.016,0.424-4.152-0.536-4.928-2.672
		c-0.752-2.048,0.408-4.584,2.76-5.104C123.98,274.32,126.22,275.616,126.644,277.808z"/>
	<path style="fill:#132C47;" d="M142.572,276.664c-0.144,2.256-1.928,3.872-3.984,3.904c-2.056,0.112-3.88-1.608-4.08-3.832
		c-0.2-2.216,1.584-4.12,3.984-4.24C140.892,272.464,142.716,274.472,142.572,276.664z"/>
	<path style="fill:#132C47;" d="M158.276,279.52c-0.696,2.064-2.88,3.32-4.872,2.832c-1.976-0.576-3.312-2.64-2.944-4.8
		c0.384-2.24,2.608-3.688,4.92-3.024C157.716,275.112,159.004,277.36,158.276,279.52z"/>
	<path style="fill:#132C47;" d="M170.284,284.952c-1.16,1.936-3.456,2.504-5.352,1.688c-1.856-0.888-2.664-3.304-1.832-5.352
		c0.848-2.088,3.28-2.904,5.448-1.864C170.748,280.4,171.428,283.064,170.284,284.952z"/>
	<path style="fill:#132C47;" d="M182.932,294.696c-1.568,1.52-4.128,1.68-5.64,0.288c-1.472-1.448-1.784-3.8-0.432-5.592
		c1.328-1.76,4.048-2.12,5.776-0.448C184.412,290.568,184.572,293.112,182.932,294.696z"/>
	<path style="fill:#132C47;" d="M192.588,307.424c-1.944,1.088-4.392,0.552-5.456-1.216c-1.176-1.688-0.792-4.104,0.976-5.488
		c1.736-1.368,4.376-0.952,5.744,1.016C195.108,303.784,194.532,306.336,192.588,307.424z"/>
	<path style="fill:#132C47;" d="M198.652,322.184c-2.224,0.568-4.184-0.664-4.968-2.576c-0.712-1.928,0.384-4.208,2.432-5.08
		c2.048-0.88,4.384,0.24,5.208,2.496C202.22,319.264,200.748,321.656,198.652,322.184z"/>
	<path style="fill:#132C47;" d="M200.78,338.008c-2.232-0.024-4.128-1.712-4.232-3.768c-0.024-2.064,1.432-3.96,3.648-4.272
		c2.2-0.312,4.36,1.344,4.408,3.752C204.732,336.112,203.012,338.032,200.78,338.008z"/>
</g>
<rect x="121.364" y="179.04" style="fill:#AD4826;" width="34.72" height="28.96"/>
<rect x="121.364" y="179.04" style="fill:#AD3C2B;" width="34.72" height="28.96"/>
<g>
	<path id="SVGCleanerId_3" style="fill:#E66032;" d="M157.444,179.096h-37.52c-8.8,0-15.92-7.12-15.92-15.92
		c0-4.48,1.76-8.48,4.64-11.36s6.88-4.64,11.28-4.64h37.52c8.88,0,16,7.12,16,16c0,4.4-1.76,8.4-4.64,11.28
		S161.924,179.096,157.444,179.096z"/>
</g>
<g>
	<g>
		<path id="SVGCleanerId_3_1_" style="fill:#E65039;" d="M157.444,179.096h-37.52c-8.8,0-15.92-7.12-15.92-15.92
			c0-4.48,1.76-8.48,4.64-11.36s6.88-4.64,11.28-4.64h37.52c8.88,0,16,7.12,16,16c0,4.4-1.76,8.4-4.64,11.28
			S161.924,179.096,157.444,179.096z"/>
	</g>
	<g>
		<path id="SVGCleanerId_3_2_" style="fill:#E65039;" d="M157.444,179.096h-37.52c-8.8,0-15.92-7.12-15.92-15.92
			c0-4.48,1.76-8.48,4.64-11.36s6.88-4.64,11.28-4.64h37.52c8.88,0,16,7.12,16,16c0,4.4-1.76,8.4-4.64,11.28
			S161.924,179.096,157.444,179.096z"/>
	</g>
</g>
<path style="fill:#EB7361;" d="M108.644,164.68c2.88-2.88,6.88-4.68,11.28-4.68h37.52c6.576,0,12.16,3.952,14.632,9.576
	c0.864-1.976,1.368-5.72,1.368-8.016c0-8.88-7.12-17.568-16-17.568h-37.52c-4.4,0-8.4,3.344-11.28,6.224s-4.64,7.672-4.64,12.152
	c0,2.28,0.496,4.816,1.36,6.776C106.156,167.336,107.26,166.064,108.644,164.68z"/>
<g>
	<path style="fill:#132C47;" d="M239.732,241.904l10.096-12.144c2.728-3.272,4.008-7.416,3.608-11.672
		c-0.392-4.24-2.408-8.072-5.672-10.792l-10-8.32c-3.304-2.752-7.48-4.056-11.768-3.632c-4.248,0.408-8.072,2.464-10.688,5.68
		l-9.984,14.296c-12.184-6.216-29.32-10.672-37.32-13.096v-16.152c0-1.096,5.512-3.056,8.416-5.96c4.504-4.504,6-12.104,6-18.52
		c0-13.232-11.744-25.584-24.984-25.584h-37.52c-6.416,0-12.432,4.064-16.936,8.568s-7.664,11.336-7.664,17.808
		c0,10.904,8.68,20.808,16.68,23.688v16.552c-16,3.232-31.552,9.488-45.56,18.08L56.372,208.24c-2.72-3.264-6.384-5.28-10.624-5.672
		c-4.264-0.44-8.328,0.88-11.584,3.608l-9.96,8.328c-6.704,5.592-7.64,15.672-2.032,22.56l10.792,12.896
		c-20.536,24.368-32.96,55.768-32.96,90.048c0,77.192,62.808,140,140,140s140-62.816,140-140.008
		C280.004,301.816,264.604,267.192,239.732,241.904z M227.524,211.272l10,8.256l-8.32,10l-9.952-8.312L227.524,211.272z
		 M114.3,155.88c1.48-1.48,3.48-3.88,5.624-3.88h37.52c4.488,0,8,5.104,8,9.584c0,2.144-0.816,3.392-2.296,4.872
		S159.644,168,157.444,168h-1.096c-0.096,0-0.176,0-0.272,0h-34.72c-0.096,0-0.176,0-0.272,0h-1.16c-4.368,0-7.92-2.8-7.92-7.168
		C112.004,158.64,112.82,157.36,114.3,155.88z M128.004,200v-16h24v16H128.004z M44.428,218.488l8.304,9.944l-9.952,8.304
		l-8.296-9.944L44.428,218.488z M140.004,464c-68.376,0-124-55.624-124-124s55.624-124,124-124s124,55.624,124,124
		S208.38,464,140.004,464z"/>
	<path style="fill:#132C47;" d="M139.044,238c-55.712,0-101.04,45.328-101.04,101.04c0,55.672,45.328,100.96,101.04,100.96
		c55.672,0,100.96-45.288,100.96-100.96C240.004,283.328,194.716,238,139.044,238z M139.044,424c-46.888,0-85.04-38.112-85.04-84.96
		c0-46.888,38.152-85.04,85.04-85.04c46.848,0,84.96,38.152,84.96,85.04C224.004,385.888,185.892,424,139.044,424z"/>
	<path style="fill:#132C47;" d="M144.004,304c-4.416,0-8,3.584-8,8v24h-16c-4.416,0-8,3.584-8,8s3.584,8,8,8h23.16
		c4.416,0,8.84-0.848,8.84-5.264V312C152.004,307.584,148.42,304,144.004,304z"/>
</g>
<rect x="320.004" y="360" style="fill:#F7FAFD;" width="72" height="80"/>
<path style="fill:#132C47;" d="M392.004,448h-72c-4.416,0-8-3.584-8-8v-80c0-4.416,3.584-8,8-8h72c4.416,0,8,3.584,8,8v80
	C400.004,444.416,396.42,448,392.004,448z M328.004,432h56v-64h-56V432z"/>
<rect x="320.004" y="248" style="fill:#F7FAFD;" width="72" height="80"/>
<path style="fill:#132C47;" d="M392.004,336h-72c-4.416,0-8-3.584-8-8v-80c0-4.416,3.584-8,8-8h72c4.416,0,8,3.584,8,8v80
	C400.004,332.416,396.42,336,392.004,336z M328.004,320h56v-64h-56V320z"/>
<rect x="320.004" y="136" style="fill:#F7FAFD;" width="72" height="80"/>
<g>
	<path style="fill:#132C47;" d="M392.004,224h-72c-4.416,0-8-3.584-8-8v-80c0-4.416,3.584-8,8-8h72c4.416,0,8,3.584,8,8v80
		C400.004,220.416,396.42,224,392.004,224z M328.004,208h56v-64h-56V208z"/>
	<path style="fill:#132C47;" d="M360.004,200c-0.264,0-0.52-0.008-0.792-0.04c-2.384-0.232-4.536-1.528-5.864-3.52l-16-24
		c-2.448-3.672-1.456-8.648,2.216-11.096c3.672-2.456,8.64-1.464,11.096,2.216l10.584,15.88l49.104-49.096
		c3.128-3.128,8.184-3.128,11.312,0s3.128,8.184,0,11.312l-56,56C364.156,199.168,362.116,200,360.004,200z"/>
	<path style="fill:#132C47;" d="M360.004,424c-0.264,0-0.52-0.008-0.792-0.04c-2.384-0.232-4.536-1.528-5.864-3.52l-16-24
		c-2.448-3.672-1.456-8.648,2.216-11.096c3.672-2.464,8.64-1.464,11.096,2.216l10.584,15.88l49.104-49.096
		c3.128-3.128,8.184-3.128,11.312,0s3.128,8.184,0,11.312l-56,56C364.156,423.168,362.116,424,360.004,424z"/>
	<path style="fill:#132C47;" d="M360.004,312c-0.264,0-0.52-0.008-0.792-0.04c-2.384-0.232-4.536-1.528-5.864-3.52l-16-24
		c-2.448-3.672-1.456-8.648,2.216-11.096c3.672-2.464,8.64-1.456,11.096,2.216l10.584,15.88l49.104-49.096
		c3.128-3.128,8.184-3.128,11.312,0c3.128,3.128,3.128,8.184,0,11.312l-56,56C364.156,311.168,362.116,312,360.004,312z"/>
</g>
<g>
</g>
<g>
</g>
<g>
</g>
<g>
</g>
<g>
</g>
<g>
</g>
<g>
</g>
<g>
</g>
<g>
</g>
<g>
</g>
<g>
</g>
<g>
</g>
<g>
</g>
<g>
</g>
<g>
</g>
</svg>
