<?xml version="1.0" encoding="UTF-8" ?>
<!DOCTYPE svg PUBLIC "-//W3C//DTD SVG 1.1//EN" "http://www.w3.org/Graphics/SVG/1.1/DTD/svg11.dtd">
<svg width="360pt" height="360pt" viewBox="0 0 360 360" version="1.1" xmlns="http://www.w3.org/2000/svg">
<g id="#eeeeeeff">
</g>
<g id="#ffffffff">
</g>
<g id="#454a50ff">
<path fill="#454a50" opacity="1.00" d=" M 159.39 73.69 C 165.89 64.56 172.14 55.23 178.93 46.32 C 191.23 54.24 202.92 63.07 215.09 71.17 C 216.00 71.79 216.91 72.42 217.81 73.06 C 224.98 78.32 232.27 83.41 239.62 88.43 C 242.88 90.67 246.00 93.11 249.27 95.36 C 247.51 98.74 245.00 101.67 243.31 105.08 C 244.28 108.02 246.51 110.31 248.25 112.81 C 256.06 123.46 263.53 134.37 271.55 144.88 C 271.53 145.54 271.51 146.85 271.50 147.51 C 268.19 149.62 265.01 151.93 261.92 154.35 C 266.98 154.75 272.42 153.30 277.18 155.51 C 276.48 162.65 276.94 169.84 276.84 177.00 C 276.91 191.23 276.63 205.47 276.95 219.70 C 279.88 219.83 282.80 220.01 285.72 220.23 C 285.98 229.26 285.62 238.28 285.97 247.30 C 285.85 249.72 285.74 252.14 285.60 254.56 C 283.03 254.67 280.45 254.72 277.89 254.93 L 276.89 255.10 C 276.42 269.14 277.52 283.23 276.32 297.23 C 273.03 297.36 269.74 297.31 266.45 297.32 C 266.52 301.50 266.42 305.69 266.30 309.87 C 264.86 311.32 263.44 312.78 262.04 314.27 C 254.70 314.58 247.35 314.44 240.00 314.49 C 232.00 314.49 224.00 314.49 216.00 314.49 C 208.00 314.46 200.00 314.46 192.01 314.49 C 184.00 314.49 176.00 314.49 168.00 314.49 C 160.00 314.46 152.00 314.46 144.00 314.49 C 136.00 314.49 128.00 314.49 120.00 314.49 C 112.00 314.46 104.00 314.46 96.00 314.49 C 91.36 314.44 86.72 314.63 82.08 314.43 C 79.25 314.50 77.11 312.42 74.94 310.93 C 74.02 303.65 74.58 296.31 74.43 289.00 C 74.39 249.31 74.49 209.62 74.39 169.92 C 74.48 167.61 74.29 164.89 76.16 163.17 C 78.63 160.94 81.24 158.88 83.65 156.59 C 86.89 153.36 91.80 154.59 95.90 154.34 C 98.26 154.35 100.62 154.33 102.98 154.30 C 105.11 151.17 107.25 148.05 109.40 144.94 C 120.47 129.17 131.57 113.42 142.59 97.61 C 143.34 96.54 144.08 95.46 144.83 94.38 C 149.69 87.49 154.55 80.60 159.39 73.69 M 180.00 51.05 C 174.81 56.97 170.84 63.82 166.12 70.11 C 147.96 96.27 129.60 122.29 111.33 148.36 C 108.68 152.48 104.99 156.05 103.68 160.90 C 107.07 159.52 110.32 157.52 112.30 154.34 C 129.91 129.25 147.53 104.17 165.03 79.01 C 167.73 74.95 173.45 74.00 177.79 75.69 C 179.74 76.07 181.90 76.97 183.83 75.99 C 186.99 74.18 188.61 70.22 192.40 69.43 C 194.48 68.97 196.89 67.81 198.91 69.05 C 204.36 72.20 209.04 76.49 214.39 79.79 C 216.08 81.24 217.61 79.23 219.06 78.45 C 209.47 71.85 199.91 65.19 190.50 58.33 C 187.01 55.89 183.53 53.43 180.00 51.05 M 187.67 77.69 C 184.37 80.96 179.25 80.43 175.32 78.74 L 175.80 78.11 C 173.65 78.39 171.36 78.33 169.40 79.34 C 168.08 80.39 167.14 81.83 166.17 83.19 C 151.01 105.31 135.22 127.02 120.19 149.22 C 124.38 146.53 129.17 144.24 132.47 140.51 C 134.21 139.50 135.86 138.36 137.48 137.17 C 137.33 135.74 137.16 134.30 136.97 132.87 C 138.56 130.34 139.08 127.28 140.84 124.85 C 142.95 121.91 146.17 120.10 149.02 117.99 C 154.49 116.46 160.13 116.76 165.70 116.68 C 170.62 113.74 175.02 110.00 179.73 106.73 C 179.10 103.35 178.10 99.74 179.51 96.41 C 181.33 92.33 185.37 89.02 190.01 89.16 C 193.60 88.69 196.62 90.89 199.89 91.89 C 204.40 89.53 208.32 86.19 212.26 83.00 C 207.49 79.31 202.61 75.71 197.49 72.55 C 193.27 71.33 190.36 75.16 187.67 77.69 M 194.62 100.66 C 188.65 104.98 182.73 109.36 177.07 114.06 C 173.01 117.49 167.90 119.35 163.91 122.88 C 160.31 126.04 155.99 128.22 152.33 131.31 C 147.60 135.34 141.98 138.21 137.43 142.47 C 133.06 146.66 127.22 148.77 122.70 152.75 C 119.66 155.44 116.37 157.82 112.96 160.03 C 116.73 160.95 120.19 159.46 122.99 156.99 C 147.93 138.91 173.00 121.01 197.97 102.97 C 200.86 100.60 204.92 101.06 208.33 101.74 C 210.64 103.12 212.37 105.49 215.02 106.28 C 219.09 107.02 222.04 102.99 226.00 103.10 C 228.10 103.13 230.26 103.15 232.28 103.78 C 233.95 105.11 235.09 106.96 236.33 108.67 C 240.35 114.61 244.80 120.25 248.81 126.19 C 250.48 128.42 249.29 131.27 248.73 133.67 C 247.99 137.45 243.68 138.90 242.40 142.36 C 241.37 145.40 243.24 148.24 243.91 151.12 C 244.02 154.27 242.76 157.27 241.98 160.28 C 247.69 161.46 251.76 156.96 256.00 154.01 C 259.42 151.39 263.20 149.24 266.47 146.43 C 266.54 146.11 266.68 145.47 266.74 145.14 C 265.30 142.12 263.07 139.57 261.16 136.85 C 248.00 118.55 234.82 100.26 221.64 81.98 C 212.14 87.51 203.97 94.93 194.62 100.66 M 229.97 86.71 C 233.07 92.16 236.88 97.18 240.81 102.04 C 242.10 100.18 243.30 98.25 244.40 96.26 C 239.59 93.08 235.19 89.24 229.97 86.71 M 184.88 94.89 C 182.18 97.21 182.37 100.97 182.76 104.18 C 187.63 101.36 192.33 98.14 196.30 94.13 C 192.68 92.44 187.97 91.81 184.88 94.89 M 194.68 109.67 C 173.98 124.66 153.16 139.50 132.42 154.44 C 129.97 156.09 127.64 157.93 125.62 160.08 C 127.65 160.18 129.74 160.58 131.74 160.08 C 138.40 160.44 145.07 160.36 151.73 160.15 C 151.43 155.70 152.13 151.30 152.96 146.95 C 154.78 144.46 156.35 141.75 158.61 139.62 C 161.13 137.24 164.64 136.48 167.48 134.59 C 171.80 134.98 176.27 134.94 180.35 136.63 C 190.49 140.64 198.04 149.80 201.17 160.13 C 211.12 160.50 221.09 160.18 231.05 160.32 C 235.68 160.81 240.63 156.89 240.25 152.03 C 239.23 148.42 237.26 144.56 238.93 140.81 C 240.65 137.46 243.75 135.13 245.90 132.07 C 245.74 130.14 245.84 128.04 244.63 126.40 C 241.29 121.44 237.37 116.89 234.19 111.82 C 232.89 110.09 231.90 107.90 229.89 106.89 C 224.60 105.26 220.34 110.49 215.07 109.76 C 210.63 109.82 208.49 104.36 204.00 104.65 C 200.21 104.49 197.59 107.75 194.68 109.67 M 145.67 124.67 C 142.87 127.04 141.66 130.66 141.02 134.15 C 147.73 130.01 154.32 125.50 160.20 120.23 C 155.05 120.04 149.57 121.08 145.67 124.67 M 157.51 146.47 C 155.11 150.62 155.08 155.55 155.67 160.17 C 169.49 160.33 183.33 160.50 197.15 160.07 C 194.09 149.81 185.53 141.08 174.95 138.78 C 168.32 137.43 160.66 140.23 157.51 146.47 M 85.48 159.94 C 89.95 160.57 94.47 160.39 98.96 160.22 C 99.22 159.64 99.74 158.49 100.00 157.92 C 95.19 158.13 89.38 156.24 85.48 159.94 M 254.60 159.82 C 257.89 160.44 261.89 159.87 264.39 162.58 C 266.40 164.48 266.47 167.41 266.48 169.99 C 266.37 186.58 266.52 203.17 266.38 219.76 C 268.64 219.79 270.90 219.81 273.16 219.85 C 273.50 199.25 273.42 178.64 273.22 158.04 C 268.15 157.88 263.06 157.61 258.00 157.99 C 256.59 157.96 255.61 159.01 254.60 159.82 M 80.09 163.90 C 79.73 164.40 79.02 165.41 78.66 165.91 C 79.34 166.70 80.00 167.50 80.64 168.32 C 80.05 169.18 78.93 169.28 78.06 169.68 C 78.00 170.16 77.88 171.12 77.82 171.60 C 77.84 172.54 77.88 174.40 77.90 175.34 C 77.89 175.93 77.88 177.11 77.87 177.70 C 77.86 178.59 77.85 180.35 77.84 181.24 C 77.96 183.75 78.08 186.27 78.03 188.80 C 76.98 193.13 77.38 197.60 77.38 202.01 C 77.39 214.39 77.38 226.76 77.36 239.14 L 78.09 239.42 C 77.82 241.27 77.57 243.13 77.52 245.01 C 77.34 262.65 77.83 280.31 77.27 297.94 C 77.44 297.59 77.78 296.90 77.94 296.56 C 78.90 296.56 79.86 296.56 80.82 296.57 C 80.74 296.98 80.58 297.78 80.50 298.18 C 79.89 298.41 78.65 298.86 78.04 299.09 C 77.94 301.61 77.93 304.13 77.94 306.65 C 78.04 307.40 78.24 308.88 78.34 309.63 C 81.42 312.22 85.91 310.98 89.56 310.66 L 90.18 311.17 C 96.86 310.94 103.54 311.26 110.22 310.90 C 110.89 310.93 112.24 310.99 112.91 311.02 C 151.94 311.03 190.96 310.98 229.99 311.05 C 231.75 311.02 233.52 310.90 235.28 310.75 L 235.75 311.22 C 238.91 310.98 242.08 310.97 245.25 311.18 L 245.76 310.79 C 250.95 310.99 256.35 311.72 261.43 310.44 C 264.35 308.13 262.94 303.82 262.78 300.66 L 263.25 300.33 C 263.24 298.76 263.27 297.19 263.34 295.63 C 263.19 295.35 262.89 294.78 262.74 294.50 C 262.85 292.82 262.84 291.15 262.72 289.48 C 262.88 289.20 263.19 288.64 263.34 288.36 C 263.30 286.81 263.29 285.27 263.31 283.73 L 262.79 283.36 C 262.99 281.72 263.20 280.08 263.42 278.45 C 263.20 278.24 262.76 277.80 262.54 277.59 C 262.81 276.02 263.05 274.45 263.27 272.87 L 262.76 272.40 C 263.25 268.86 263.24 265.27 263.00 261.71 C 262.82 259.31 262.71 256.91 262.62 254.51 C 255.42 254.81 248.21 254.59 241.00 254.69 C 236.67 254.65 232.05 255.04 228.11 252.87 C 220.52 249.16 216.58 239.46 219.51 231.53 C 221.83 225.11 228.07 220.24 234.94 219.94 C 243.26 219.56 251.60 220.04 259.92 219.77 C 260.10 219.35 260.44 218.52 260.61 218.11 C 261.39 218.69 262.16 219.28 262.94 219.87 C 263.24 204.92 262.93 189.96 263.09 175.01 C 263.07 171.47 263.45 167.73 261.77 164.46 C 256.86 164.00 251.92 164.18 247.00 164.17 C 211.55 164.09 176.08 164.29 140.64 163.94 C 140.16 164.82 140.38 166.57 139.00 166.53 C 137.58 166.63 137.85 164.83 137.40 163.95 C 134.67 163.85 131.93 163.86 129.20 163.88 C 129.24 164.51 129.33 165.75 129.38 166.37 C 127.54 166.75 126.43 165.88 126.31 163.99 C 125.31 163.93 124.32 163.87 123.32 163.82 C 123.35 164.44 123.40 165.68 123.42 166.30 C 122.50 166.29 121.58 166.26 120.66 166.25 C 120.67 165.65 120.70 164.47 120.71 163.87 C 119.71 163.91 118.72 163.94 117.73 163.98 C 117.28 165.02 116.82 166.06 116.34 167.08 C 115.99 166.01 115.66 164.94 115.34 163.86 C 114.31 163.93 113.29 164.01 112.28 164.09 C 112.03 164.76 111.54 166.11 111.29 166.79 C 110.74 166.53 110.19 166.27 109.63 166.01 C 109.64 165.50 109.67 164.47 109.68 163.96 C 106.84 163.87 103.99 163.83 101.15 163.85 C 101.19 164.40 101.27 165.50 101.31 166.05 C 100.44 166.28 99.57 166.50 98.71 166.74 C 98.59 166.02 98.36 164.59 98.25 163.87 C 95.96 163.87 93.60 163.54 91.38 164.25 C 87.66 163.50 83.85 163.68 80.09 163.90 M 231.73 223.69 C 231.37 224.04 230.65 224.73 230.29 225.08 C 230.39 225.97 230.49 226.87 230.59 227.76 C 229.40 227.56 228.23 227.31 227.03 227.22 C 224.83 228.32 223.96 230.87 222.58 232.76 C 221.90 235.57 221.74 238.51 222.67 241.29 L 222.32 242.22 C 223.04 241.71 224.49 240.68 225.22 240.17 C 225.60 241.69 224.78 243.02 223.97 244.25 C 226.07 247.86 229.74 250.26 233.79 251.13 C 238.48 252.02 243.26 251.61 248.01 251.63 C 259.57 251.63 271.13 251.58 282.69 251.69 C 282.57 242.21 282.59 232.74 282.71 223.26 C 270.81 223.19 258.90 223.22 247.00 223.22 C 241.91 223.23 236.78 222.85 231.73 223.69 M 266.36 254.97 C 266.50 267.86 266.46 280.75 266.39 293.65 C 268.62 293.64 270.86 293.65 273.11 293.68 C 273.61 280.70 273.36 267.68 273.23 254.68 C 270.93 254.73 268.64 254.82 266.36 254.97 Z" />
</g>
<g id="#7fa180ff">
<path fill="#7fa180" opacity="1.00" d=" M 180.00 51.05 C 183.53 53.43 187.01 55.89 190.50 58.33 C 185.02 63.07 181.39 69.51 177.79 75.69 C 173.45 74.00 167.73 74.95 165.03 79.01 C 147.53 104.17 129.91 129.25 112.30 154.34 C 110.32 157.52 107.07 159.52 103.68 160.90 C 104.99 156.05 108.68 152.48 111.33 148.36 C 129.60 122.29 147.96 96.27 166.12 70.11 C 170.84 63.82 174.81 56.97 180.00 51.05 Z" />
</g>
<g id="#a5d6a8ff">
<path fill="#a5d6a8" opacity="1.00" d=" M 177.79 75.69 C 181.39 69.51 185.02 63.07 190.50 58.33 C 199.91 65.19 209.47 71.85 219.06 78.45 C 217.61 79.23 216.08 81.24 214.39 79.79 C 209.04 76.49 204.36 72.20 198.91 69.05 C 196.89 67.81 194.48 68.97 192.40 69.43 C 188.61 70.22 186.99 74.18 183.83 75.99 C 181.90 76.97 179.74 76.07 177.79 75.69 Z" />
<path fill="#a5d6a8" opacity="1.00" d=" M 194.62 100.66 C 203.97 94.93 212.14 87.51 221.64 81.98 C 234.82 100.26 248.00 118.55 261.16 136.85 C 263.07 139.57 265.30 142.12 266.74 145.14 C 266.68 145.47 266.54 146.11 266.47 146.43 C 263.20 149.24 259.42 151.39 256.00 154.01 C 251.76 156.96 247.69 161.46 241.98 160.28 C 242.76 157.27 244.02 154.27 243.91 151.12 C 243.24 148.24 241.37 145.40 242.40 142.36 C 243.68 138.90 247.99 137.45 248.73 133.67 C 249.29 131.27 250.48 128.42 248.81 126.19 C 244.80 120.25 240.35 114.61 236.33 108.67 C 235.09 106.96 233.95 105.11 232.28 103.78 C 230.26 103.15 228.10 103.13 226.00 103.10 C 222.04 102.99 219.09 107.02 215.02 106.28 C 212.37 105.49 210.64 103.12 208.33 101.74 C 204.92 101.06 200.86 100.60 197.97 102.97 C 173.00 121.01 147.93 138.91 122.99 156.99 C 120.19 159.46 116.73 160.95 112.96 160.03 C 116.37 157.82 119.66 155.44 122.70 152.75 C 127.22 148.77 133.06 146.66 137.43 142.47 C 141.98 138.21 147.60 135.34 152.33 131.31 C 155.99 128.22 160.31 126.04 163.91 122.88 C 167.90 119.35 173.01 117.49 177.07 114.06 C 182.73 109.36 188.65 104.98 194.62 100.66 Z" />
<path fill="#a5d6a8" opacity="1.00" d=" M 212.30 124.29 C 219.17 121.69 226.47 129.87 223.42 136.46 C 221.44 141.93 213.84 143.07 209.84 139.15 C 204.95 135.20 206.10 126.23 212.30 124.29 Z" />
</g>
<g id="#e6ee9bff">
<path fill="#e6ee9b" opacity="1.00" d=" M 187.67 77.69 C 190.36 75.16 193.27 71.33 197.49 72.55 C 202.61 75.71 207.49 79.31 212.26 83.00 C 208.32 86.19 204.40 89.53 199.89 91.89 C 196.62 90.89 193.60 88.69 190.01 89.16 C 185.37 89.02 181.33 92.33 179.51 96.41 C 178.10 99.74 179.10 103.35 179.73 106.73 C 175.02 110.00 170.62 113.74 165.70 116.68 C 160.13 116.76 154.49 116.46 149.02 117.99 C 148.58 118.05 147.72 118.19 147.28 118.25 C 156.92 105.29 165.56 91.62 175.32 78.74 C 179.25 80.43 184.37 80.96 187.67 77.69 Z" />
<path fill="#e6ee9b" opacity="1.00" d=" M 196.95 112.93 C 199.12 111.26 201.74 109.87 204.57 110.31 C 208.88 110.36 211.63 114.20 215.45 115.53 C 218.93 115.49 221.83 113.09 225.18 112.43 C 228.52 111.84 232.55 112.37 234.65 115.34 C 238.75 120.66 242.83 126.07 245.90 132.07 C 243.75 135.13 240.65 137.46 238.93 140.81 C 237.26 144.56 239.23 148.42 240.25 152.03 C 240.63 156.89 235.68 160.81 231.05 160.32 C 221.09 160.18 211.12 160.50 201.17 160.13 C 198.04 149.80 190.49 140.64 180.35 136.63 C 176.27 134.94 171.80 134.98 167.48 134.59 C 177.01 126.99 187.18 120.23 196.95 112.93 M 212.41 120.52 C 208.87 121.32 205.78 123.81 204.17 127.05 C 201.13 133.84 205.02 142.71 212.36 144.57 C 219.35 147.14 227.49 141.46 227.56 134.04 C 228.53 125.96 220.35 118.59 212.41 120.52 Z" />
</g>
<g id="#adb379ff">
<path fill="#adb379" opacity="1.00" d=" M 169.40 79.34 C 171.36 78.33 173.65 78.39 175.80 78.11 L 175.32 78.74 C 165.56 91.62 156.92 105.29 147.28 118.25 C 147.72 118.19 148.58 118.05 149.02 117.99 C 146.17 120.10 142.95 121.91 140.84 124.85 C 139.08 127.28 138.56 130.34 136.97 132.87 C 135.25 135.28 133.66 137.79 132.47 140.51 C 129.17 144.24 124.38 146.53 120.19 149.22 C 135.22 127.02 151.01 105.31 166.17 83.19 C 167.14 81.83 168.08 80.39 169.40 79.34 Z" />
</g>
<g id="#a7d5aaff">
<path fill="#a7d5aa" opacity="1.00" d=" M 229.97 86.71 C 235.19 89.24 239.59 93.08 244.40 96.26 C 243.30 98.25 242.10 100.18 240.81 102.04 C 236.88 97.18 233.07 92.16 229.97 86.71 Z" />
</g>
<g id="#a6d6a9ff">
<path fill="#a6d6a9" opacity="1.00" d=" M 184.88 94.89 C 187.97 91.81 192.68 92.44 196.30 94.13 C 192.33 98.14 187.63 101.36 182.76 104.18 C 182.37 100.97 182.18 97.21 184.88 94.89 Z" />
</g>
<g id="#adb378ff">
<path fill="#adb378" opacity="1.00" d=" M 194.68 109.67 C 197.59 107.75 200.21 104.49 204.00 104.65 C 208.49 104.36 210.63 109.82 215.07 109.76 C 220.34 110.49 224.60 105.26 229.89 106.89 C 231.90 107.90 232.89 110.09 234.19 111.82 C 237.37 116.89 241.29 121.44 244.63 126.40 C 245.84 128.04 245.74 130.14 245.90 132.07 C 242.83 126.07 238.75 120.66 234.65 115.34 C 232.55 112.37 228.52 111.84 225.18 112.43 C 221.83 113.09 218.93 115.49 215.45 115.53 C 211.63 114.20 208.88 110.36 204.57 110.31 C 201.74 109.87 199.12 111.26 196.95 112.93 C 187.18 120.23 177.01 126.99 167.48 134.59 C 164.64 136.48 161.13 137.24 158.61 139.62 C 156.35 141.75 154.78 144.46 152.96 146.95 C 153.03 146.44 153.17 145.43 153.24 144.92 C 145.72 149.45 138.77 154.84 131.74 160.08 C 129.74 160.58 127.65 160.18 125.62 160.08 C 127.64 157.93 129.97 156.09 132.42 154.44 C 153.16 139.50 173.98 124.66 194.68 109.67 Z" />
</g>
<g id="#a6d6a7ff">
<path fill="#a6d6a7" opacity="1.00" d=" M 145.67 124.67 C 149.57 121.08 155.05 120.04 160.20 120.23 C 154.32 125.50 147.73 130.01 141.02 134.15 C 141.66 130.66 142.87 127.04 145.67 124.67 Z" />
</g>
<g id="#434b4eff">
<path fill="#434b4e" opacity="1.00" d=" M 212.41 120.52 C 220.35 118.59 228.53 125.96 227.56 134.04 C 227.49 141.46 219.35 147.14 212.36 144.57 C 205.02 142.71 201.13 133.84 204.17 127.05 C 205.78 123.81 208.87 121.32 212.41 120.52 M 212.30 124.29 C 206.10 126.23 204.95 135.20 209.84 139.15 C 213.84 143.07 221.44 141.93 223.42 136.46 C 226.47 129.87 219.17 121.69 212.30 124.29 Z" />
</g>
<g id="#cdd79eff">
<path fill="#cdd79e" opacity="1.00" d=" M 132.47 140.51 C 133.66 137.79 135.25 135.28 136.97 132.87 C 137.16 134.30 137.33 135.74 137.48 137.17 C 135.86 138.36 134.21 139.50 132.47 140.51 Z" />
</g>
<g id="#a5d6a7ff">
<path fill="#a5d6a7" opacity="1.00" d=" M 157.51 146.47 C 160.66 140.23 168.32 137.43 174.95 138.78 C 185.53 141.08 194.09 149.81 197.15 160.07 C 183.33 160.50 169.49 160.33 155.67 160.17 C 155.08 155.55 155.11 150.62 157.51 146.47 Z" />
</g>
<g id="#eeefeeff">
</g>
<g id="#e6ed9dff">
<path fill="#e6ed9d" opacity="1.00" d=" M 131.74 160.08 C 138.77 154.84 145.72 149.45 153.24 144.92 C 153.17 145.43 153.03 146.44 152.96 146.95 C 152.13 151.30 151.43 155.70 151.73 160.15 C 145.07 160.36 138.40 160.44 131.74 160.08 Z" />
</g>
<g id="#d79768ff">
<path fill="#d79768" opacity="1.00" d=" M 85.48 159.94 C 89.38 156.24 95.19 158.13 100.00 157.92 C 99.74 158.49 99.22 159.64 98.96 160.22 C 94.47 160.39 89.95 160.57 85.48 159.94 Z" />
</g>
<g id="#e6bb7bff">
<path fill="#e6bb7b" opacity="1.00" d=" M 254.60 159.82 C 255.61 159.01 256.59 157.96 258.00 157.99 C 263.06 157.61 268.15 157.88 273.22 158.04 C 273.42 178.64 273.50 199.25 273.16 219.85 C 270.90 219.81 268.64 219.79 266.38 219.76 C 266.52 203.17 266.37 186.58 266.48 169.99 C 266.47 167.41 266.40 164.48 264.39 162.58 C 261.89 159.87 257.89 160.44 254.60 159.82 Z" />
</g>
<g id="#f2a16bff">
<path fill="#f2a16b" opacity="1.00" d=" M 80.09 163.90 C 83.85 163.68 87.66 163.50 91.38 164.25 C 90.97 164.36 90.15 164.58 89.74 164.69 C 87.91 164.00 85.82 166.95 88.63 166.73 C 88.93 166.43 89.53 165.82 89.83 165.52 C 90.03 167.67 90.16 169.83 90.21 172.00 C 90.21 217.25 90.18 262.50 90.22 307.76 C 90.21 308.61 90.19 310.31 90.18 311.17 L 89.56 310.66 C 88.57 309.91 87.65 309.07 86.57 308.47 C 85.32 308.70 84.14 309.19 82.94 309.60 C 81.29 308.60 79.62 307.61 77.94 306.65 C 77.93 304.13 77.94 301.61 78.04 299.09 C 78.65 298.86 79.89 298.41 80.50 298.18 C 80.58 297.78 80.74 296.98 80.82 296.57 C 79.86 296.56 78.90 296.56 77.94 296.56 C 78.73 294.89 79.73 293.32 80.38 291.59 C 79.72 290.91 79.00 290.31 78.29 289.70 C 79.17 288.50 80.05 287.30 80.93 286.10 C 80.06 285.09 79.20 284.08 78.33 283.07 C 79.22 282.30 80.12 281.54 81.01 280.77 C 80.16 279.81 79.31 278.85 78.46 277.89 C 79.23 276.92 79.99 275.94 80.76 274.97 C 80.05 274.07 79.34 273.17 78.63 272.27 C 79.30 271.27 80.01 270.28 80.57 269.21 C 79.89 268.26 79.11 267.39 78.35 266.51 C 79.27 265.43 80.19 264.35 81.10 263.26 C 80.06 262.86 79.01 262.47 77.97 262.08 C 78.89 260.73 79.82 259.38 80.74 258.04 C 79.92 257.27 79.09 256.50 78.26 255.73 C 79.12 254.55 79.98 253.38 80.84 252.20 C 79.98 251.42 79.11 250.63 78.25 249.85 C 79.12 248.83 79.99 247.82 80.86 246.80 C 80.09 245.89 79.31 244.99 78.54 244.08 C 79.40 242.90 80.25 241.71 81.10 240.53 C 80.34 240.25 78.84 239.69 78.09 239.42 L 77.36 239.14 C 78.50 237.93 79.64 236.72 80.78 235.50 C 79.79 234.34 78.81 233.17 77.84 232.00 C 78.92 231.41 80.01 230.83 81.09 230.25 C 80.10 229.49 79.10 228.74 78.10 227.99 C 78.82 226.83 79.69 225.74 80.18 224.46 C 79.70 223.39 79.07 222.39 78.63 221.31 C 79.11 220.31 79.73 219.39 80.18 218.38 C 79.69 217.52 79.11 216.73 78.61 215.89 C 79.30 215.08 80.03 214.29 80.78 213.54 C 79.94 212.64 79.08 211.75 78.21 210.87 C 78.95 209.70 79.76 208.58 80.33 207.32 C 79.63 206.10 78.76 204.99 77.94 203.86 C 78.86 203.41 79.78 202.97 80.69 202.53 C 80.63 202.18 80.50 201.49 80.44 201.14 C 79.62 200.83 78.81 200.51 78.00 200.21 C 78.91 198.72 79.91 197.27 80.61 195.67 C 79.79 195.02 78.91 194.45 78.05 193.87 C 79.03 192.47 80.02 191.08 81.00 189.69 C 80.26 189.47 78.77 189.02 78.03 188.80 C 78.08 186.27 77.96 183.75 77.84 181.24 C 78.59 181.08 80.08 180.76 80.83 180.60 C 80.85 180.01 80.88 178.81 80.90 178.21 C 80.14 178.09 78.63 177.83 77.87 177.70 C 77.88 177.11 77.89 175.93 77.90 175.34 C 78.63 175.18 80.08 174.85 80.81 174.69 C 80.82 174.12 80.85 172.98 80.86 172.42 C 80.10 172.21 78.58 171.81 77.82 171.60 C 77.88 171.12 78.00 170.16 78.06 169.68 C 78.93 169.28 80.05 169.18 80.64 168.32 C 80.00 167.50 79.34 166.70 78.66 165.91 C 79.02 165.41 79.73 164.40 80.09 163.90 M 81.48 165.02 C 80.50 166.37 82.85 167.76 83.75 166.50 C 84.77 165.14 82.38 163.73 81.48 165.02 M 79.16 302.22 C 77.85 303.07 79.14 305.57 80.53 304.44 C 81.83 303.58 80.55 301.09 79.16 302.22 Z" />
</g>
<g id="#ffcc80ff">
<path fill="#ffcc80" opacity="1.00" d=" M 91.38 164.25 C 93.60 163.54 95.96 163.87 98.25 163.87 C 98.36 164.59 98.59 166.02 98.71 166.74 C 99.57 166.50 100.44 166.28 101.31 166.05 C 101.27 165.50 101.19 164.40 101.15 163.85 C 103.99 163.83 106.84 163.87 109.68 163.96 C 109.67 164.47 109.64 165.50 109.63 166.01 C 110.19 166.27 110.74 166.53 111.29 166.79 C 111.54 166.11 112.03 164.76 112.28 164.09 C 113.29 164.01 114.31 163.93 115.34 163.86 C 115.66 164.94 115.99 166.01 116.34 167.08 C 116.82 166.06 117.28 165.02 117.73 163.98 C 118.72 163.94 119.71 163.91 120.71 163.87 C 120.70 164.47 120.67 165.65 120.66 166.25 C 121.58 166.26 122.50 166.29 123.42 166.30 C 123.40 165.68 123.35 164.44 123.32 163.82 C 124.32 163.87 125.31 163.93 126.31 163.99 C 126.43 165.88 127.54 166.75 129.38 166.37 C 129.33 165.75 129.24 164.51 129.20 163.88 C 131.93 163.86 134.67 163.85 137.40 163.95 C 137.85 164.83 137.58 166.63 139.00 166.53 C 140.38 166.57 140.16 164.82 140.64 163.94 C 176.08 164.29 211.55 164.09 247.00 164.17 C 251.92 164.18 256.86 164.00 261.77 164.46 C 261.53 164.97 261.06 165.97 260.82 166.48 C 260.72 167.14 260.52 168.45 260.42 169.11 C 260.88 170.07 261.38 171.02 261.89 171.96 C 260.21 171.56 259.15 173.79 260.25 174.99 C 260.65 175.81 261.04 176.65 261.45 177.48 C 259.79 178.23 259.43 181.03 261.50 181.51 C 261.03 182.36 260.62 183.24 260.23 184.13 L 259.86 184.95 L 260.28 185.80 C 260.78 186.83 261.30 187.87 261.80 188.91 C 259.30 188.34 259.27 192.22 261.60 192.30 C 261.33 193.01 261.10 193.73 260.84 194.44 C 259.62 195.59 259.64 198.04 261.57 198.44 C 261.10 199.32 260.69 200.22 260.28 201.13 L 259.91 201.97 L 260.28 202.82 C 260.66 203.74 261.05 204.66 261.45 205.59 C 260.19 206.46 259.81 207.58 260.32 208.96 C 260.51 209.62 260.72 210.29 260.87 210.97 C 260.78 211.23 260.59 211.74 260.49 212.00 C 259.60 213.18 260.31 215.18 261.96 215.01 C 261.50 216.03 261.05 217.07 260.61 218.11 C 260.44 218.52 260.10 219.35 259.92 219.77 C 251.60 220.04 243.26 219.56 234.94 219.94 C 228.07 220.24 221.83 225.11 219.51 231.53 C 216.58 239.46 220.52 249.16 228.11 252.87 C 232.05 255.04 236.67 254.65 241.00 254.69 C 248.21 254.59 255.42 254.81 262.62 254.51 C 262.71 256.91 262.82 259.31 263.00 261.71 C 262.22 261.89 260.64 262.25 259.85 262.43 C 260.41 263.86 260.99 265.29 261.55 266.72 C 261.07 267.74 260.58 268.76 260.20 269.82 C 260.97 270.75 261.87 271.57 262.76 272.40 L 263.27 272.87 C 262.47 273.04 260.86 273.36 260.06 273.52 C 260.11 274.43 260.17 275.34 260.23 276.26 C 260.81 276.59 261.96 277.25 262.54 277.59 C 262.76 277.80 263.20 278.24 263.42 278.45 C 262.58 278.70 260.89 279.18 260.05 279.43 C 260.09 279.96 260.18 281.03 260.23 281.56 C 261.08 282.15 261.93 282.75 262.79 283.36 L 263.31 283.73 C 262.24 284.25 261.17 284.78 260.10 285.31 C 260.06 285.91 259.98 287.10 259.95 287.70 C 260.80 287.86 262.49 288.19 263.34 288.36 C 263.19 288.64 262.88 289.20 262.72 289.48 C 262.09 289.78 260.81 290.39 260.18 290.69 C 260.18 291.55 260.19 292.42 260.21 293.28 C 260.84 293.59 262.11 294.19 262.74 294.50 C 262.89 294.78 263.19 295.35 263.34 295.63 C 262.47 295.78 260.74 296.09 259.88 296.24 C 259.95 296.84 260.09 298.05 260.15 298.65 C 261.18 299.21 262.22 299.77 263.25 300.33 L 262.78 300.66 C 261.87 301.29 260.97 301.92 260.07 302.54 C 260.76 303.75 261.46 304.95 262.16 306.16 C 260.72 307.51 259.30 308.89 257.89 310.28 C 256.90 309.54 255.91 308.80 254.92 308.07 C 253.94 308.71 252.98 309.36 252.01 310.01 C 251.05 309.38 250.11 308.75 249.16 308.12 C 248.03 309.02 246.90 309.91 245.76 310.79 L 245.25 311.18 C 245.06 310.35 244.69 308.71 244.51 307.89 C 243.35 308.54 242.19 309.21 241.04 309.87 C 239.60 309.20 238.16 308.53 236.72 307.89 C 236.48 308.72 235.99 310.39 235.75 311.22 L 235.28 310.75 C 234.41 309.87 233.54 308.98 232.68 308.09 C 231.49 308.75 230.31 309.41 229.12 310.07 C 228.36 309.42 227.60 308.77 226.84 308.13 C 225.89 308.76 224.95 309.40 224.01 310.05 C 223.00 309.38 221.99 308.71 220.99 308.05 C 220.02 308.69 219.05 309.32 218.09 309.96 C 217.13 309.35 216.18 308.74 215.23 308.13 C 214.43 308.81 213.63 309.48 212.84 310.16 C 211.86 309.48 210.89 308.80 209.92 308.12 C 208.94 308.75 207.96 309.38 206.99 310.01 C 206.02 309.38 205.06 308.75 204.10 308.13 C 203.11 308.80 202.12 309.48 201.13 310.16 C 200.36 309.47 199.60 308.79 198.84 308.11 C 197.88 308.75 196.93 309.40 195.98 310.05 C 194.99 309.38 194.00 308.71 193.02 308.05 C 192.08 308.61 191.16 309.19 190.22 309.76 C 188.51 308.84 186.66 308.23 185.05 309.73 C 183.96 309.27 182.87 308.78 181.78 308.30 C 180.85 308.86 179.92 309.43 178.99 310.01 C 177.99 309.35 177.00 308.69 176.00 308.04 C 175.03 308.68 174.06 309.32 173.10 309.97 C 172.14 309.36 171.18 308.76 170.23 308.17 C 169.45 308.79 168.69 309.42 167.92 310.05 C 166.94 309.38 165.97 308.71 165.00 308.05 C 164.00 308.70 163.00 309.36 162.00 310.01 C 161.00 309.35 159.99 308.69 158.99 308.04 C 158.03 308.72 157.07 309.39 156.11 310.08 C 155.35 309.43 154.59 308.79 153.84 308.15 C 152.87 308.76 151.91 309.39 150.95 310.01 C 149.96 309.36 148.98 308.70 148.00 308.05 C 147.01 308.70 146.02 309.36 145.04 310.01 C 144.06 309.38 143.09 308.74 142.12 308.12 C 141.37 308.77 140.62 309.42 139.87 310.08 C 138.91 309.39 137.95 308.71 137.00 308.03 C 135.98 308.69 134.96 309.36 133.95 310.03 C 132.97 309.37 131.99 308.72 131.00 308.06 C 130.01 308.71 129.02 309.36 128.03 310.01 C 127.08 309.37 126.12 308.73 125.17 308.10 C 124.42 308.75 123.67 309.39 122.92 310.05 C 122.02 309.46 121.12 308.87 120.22 308.30 C 117.75 309.97 114.92 309.11 112.31 308.38 C 112.46 309.04 112.76 310.36 112.91 311.02 C 112.24 310.99 110.89 310.93 110.22 310.90 C 110.03 310.15 109.66 308.64 109.47 307.89 C 108.27 308.60 107.10 309.34 105.91 310.07 C 104.89 309.40 103.89 308.71 102.88 308.04 C 101.93 308.69 100.98 309.35 100.03 310.01 C 99.08 309.38 98.13 308.75 97.17 308.14 C 96.23 308.83 95.28 309.54 94.33 310.24 C 92.97 309.40 91.60 308.57 90.22 307.76 C 90.18 262.50 90.21 217.25 90.21 172.00 C 90.16 169.83 90.03 167.67 89.83 165.52 L 89.74 164.69 C 90.15 164.58 90.97 164.36 91.38 164.25 M 93.27 165.10 C 93.41 168.46 96.25 163.53 93.27 165.10 M 104.44 165.13 C 104.57 166.56 105.22 166.82 106.39 165.89 C 106.25 164.46 105.60 164.21 104.44 165.13 Z" />
</g>
<g id="#9d745aff">
<path fill="#9d745a" opacity="1.00" d=" M 81.48 165.02 C 82.38 163.73 84.77 165.14 83.75 166.50 C 82.85 167.76 80.50 166.37 81.48 165.02 Z" />
</g>
<g id="#996c54ff">
<path fill="#996c54" opacity="1.00" d=" M 88.63 166.73 C 85.82 166.95 87.91 164.00 89.74 164.69 L 89.83 165.52 C 89.53 165.82 88.93 166.43 88.63 166.73 Z" />
</g>
<g id="#676245ff">
<path fill="#676245" opacity="1.00" d=" M 93.27 165.10 C 96.25 163.53 93.41 168.46 93.27 165.10 Z" />
</g>
<g id="#796a4aff">
<path fill="#796a4a" opacity="1.00" d=" M 104.44 165.13 C 105.60 164.21 106.25 164.46 106.39 165.89 C 105.22 166.82 104.57 166.56 104.44 165.13 Z" />
</g>
<g id="#c9b18bff">
<path fill="#c9b18b" opacity="1.00" d=" M 261.77 164.46 C 263.45 167.73 263.07 171.47 263.09 175.01 C 262.93 189.96 263.24 204.92 262.94 219.87 C 262.16 219.28 261.39 218.69 260.61 218.11 C 261.05 217.07 261.50 216.03 261.96 215.01 C 262.89 213.85 262.08 211.82 260.49 212.00 C 260.59 211.74 260.78 211.23 260.87 210.97 C 260.72 210.29 260.51 209.62 260.32 208.96 C 262.65 209.93 263.06 206.62 261.45 205.59 C 261.05 204.66 260.66 203.74 260.28 202.82 C 262.87 204.24 262.88 199.69 260.28 201.13 C 260.69 200.22 261.10 199.32 261.57 198.44 C 262.68 197.20 262.26 195.24 260.84 194.44 C 261.10 193.73 261.33 193.01 261.60 192.30 C 262.32 191.17 262.39 190.04 261.80 188.91 C 261.30 187.87 260.78 186.83 260.28 185.80 C 262.90 187.29 262.81 182.74 260.23 184.13 C 260.62 183.24 261.03 182.36 261.50 181.51 C 262.55 180.35 262.44 178.62 261.45 177.48 C 261.04 176.65 260.65 175.81 260.25 174.99 C 261.95 175.43 263.09 173.16 261.89 171.96 C 261.38 171.02 260.88 170.07 260.42 169.11 C 262.45 169.92 262.61 166.79 260.82 166.48 C 261.06 165.97 261.53 164.97 261.77 164.46 Z" />
</g>
<g id="#886c4bff">
<path fill="#886c4b" opacity="1.00" d=" M 260.42 169.11 C 260.52 168.45 260.72 167.14 260.82 166.48 C 262.61 166.79 262.45 169.92 260.42 169.11 Z" />
</g>
<g id="#b37f61ff">
<path fill="#b37f61" opacity="1.00" d=" M 77.82 171.60 C 78.58 171.81 80.10 172.21 80.86 172.42 C 80.85 172.98 80.82 174.12 80.81 174.69 C 80.08 174.85 78.63 175.18 77.90 175.34 C 77.88 174.40 77.84 172.54 77.82 171.60 Z" />
</g>
<g id="#99825aff">
<path fill="#99825a" opacity="1.00" d=" M 260.25 174.99 C 259.15 173.79 260.21 171.56 261.89 171.96 C 263.09 173.16 261.95 175.43 260.25 174.99 Z" />
</g>
<g id="#b9805dff">
<path fill="#b9805d" opacity="1.00" d=" M 77.87 177.70 C 78.63 177.83 80.14 178.09 80.90 178.21 C 80.88 178.81 80.85 180.01 80.83 180.60 C 80.08 180.76 78.59 181.08 77.84 181.24 C 77.85 180.35 77.86 178.59 77.87 177.70 Z" />
</g>
<g id="#9c7e5bff">
<path fill="#9c7e5b" opacity="1.00" d=" M 261.50 181.51 C 259.43 181.03 259.79 178.23 261.45 177.48 C 262.44 178.62 262.55 180.35 261.50 181.51 Z" />
</g>
<g id="#897454ff">
<path fill="#897454" opacity="1.00" d=" M 260.23 184.13 C 262.81 182.74 262.90 187.29 260.28 185.80 L 259.86 184.95 L 260.23 184.13 Z" />
</g>
<g id="#965f40ff">
<path fill="#965f40" opacity="1.00" d=" M 78.03 188.80 C 78.77 189.02 80.26 189.47 81.00 189.69 C 80.02 191.08 79.03 192.47 78.05 193.87 C 78.91 194.45 79.79 195.02 80.61 195.67 C 79.91 197.27 78.91 198.72 78.00 200.21 C 78.81 200.51 79.62 200.83 80.44 201.14 C 80.50 201.49 80.63 202.18 80.69 202.53 C 79.78 202.97 78.86 203.41 77.94 203.86 C 78.76 204.99 79.63 206.10 80.33 207.32 C 79.76 208.58 78.95 209.70 78.21 210.87 C 79.08 211.75 79.94 212.64 80.78 213.54 C 80.03 214.29 79.30 215.08 78.61 215.89 C 79.11 216.73 79.69 217.52 80.18 218.38 C 79.73 219.39 79.11 220.31 78.63 221.31 C 79.07 222.39 79.70 223.39 80.18 224.46 C 79.69 225.74 78.82 226.83 78.10 227.99 C 79.10 228.74 80.10 229.49 81.09 230.25 C 80.01 230.83 78.92 231.41 77.84 232.00 C 78.81 233.17 79.79 234.34 80.78 235.50 C 79.64 236.72 78.50 237.93 77.36 239.14 C 77.38 226.76 77.39 214.39 77.38 202.01 C 77.38 197.60 76.98 193.13 78.03 188.80 Z" />
</g>
<g id="#99805bff">
<path fill="#99805b" opacity="1.00" d=" M 261.60 192.30 C 259.27 192.22 259.30 188.34 261.80 188.91 C 262.39 190.04 262.32 191.17 261.60 192.30 Z" />
</g>
<g id="#9e8058ff">
<path fill="#9e8058" opacity="1.00" d=" M 261.57 198.44 C 259.64 198.04 259.62 195.59 260.84 194.44 C 262.26 195.24 262.68 197.20 261.57 198.44 Z" />
</g>
<g id="#8c764dff">
<path fill="#8c764d" opacity="1.00" d=" M 260.28 201.13 C 262.88 199.69 262.87 204.24 260.28 202.82 L 259.91 201.97 L 260.28 201.13 Z" />
</g>
<g id="#96805aff">
<path fill="#96805a" opacity="1.00" d=" M 260.32 208.96 C 259.81 207.58 260.19 206.46 261.45 205.59 C 263.06 206.62 262.65 209.93 260.32 208.96 Z" />
</g>
<g id="#927b55ff">
<path fill="#927b55" opacity="1.00" d=" M 260.49 212.00 C 262.08 211.82 262.89 213.85 261.96 215.01 C 260.31 215.18 259.60 213.18 260.49 212.00 Z" />
</g>
<g id="#a09265ff">
<path fill="#a09265" opacity="1.00" d=" M 231.73 223.69 C 236.78 222.85 241.91 223.23 247.00 223.22 C 258.90 223.22 270.81 223.19 282.71 223.26 C 282.59 232.74 282.57 242.21 282.69 251.69 C 271.13 251.58 259.57 251.63 248.01 251.63 C 243.26 251.61 238.48 252.02 233.79 251.13 C 237.56 251.20 241.32 250.58 244.80 249.11 C 245.85 249.91 246.91 250.71 247.97 251.50 C 248.17 250.80 248.56 249.39 248.75 248.69 C 249.18 248.67 250.02 248.64 250.45 248.63 C 250.59 249.33 250.89 250.74 251.03 251.45 C 252.39 250.44 253.71 249.34 255.20 248.53 C 256.67 249.29 257.95 250.35 259.28 251.32 C 259.45 250.59 259.80 249.12 259.97 248.38 C 261.65 249.37 263.30 250.39 264.98 251.38 C 265.16 250.72 265.52 249.40 265.69 248.74 C 266.13 248.72 267.00 248.69 267.44 248.67 C 267.53 249.25 267.70 250.42 267.79 251.01 C 268.93 251.00 270.07 251.00 271.22 251.00 C 271.29 250.42 271.44 249.24 271.51 248.65 C 271.91 248.69 272.70 248.77 273.10 248.82 C 273.33 249.43 273.79 250.67 274.02 251.28 C 275.66 250.33 277.31 249.38 278.97 248.45 C 279.14 249.12 279.48 250.48 279.65 251.16 C 280.21 251.07 281.32 250.91 281.88 250.83 C 282.35 242.00 282.22 233.14 281.87 224.31 C 280.87 225.00 279.87 225.69 278.88 226.38 C 278.68 225.74 278.28 224.46 278.07 223.83 C 277.35 223.82 276.63 223.81 275.91 223.81 C 275.72 224.48 275.36 225.82 275.18 226.50 C 274.02 225.63 272.88 224.75 271.74 223.88 C 270.38 224.76 269.02 225.64 267.65 226.52 C 267.54 225.77 267.31 224.26 267.20 223.51 C 265.42 224.43 263.65 225.37 261.87 226.28 C 261.69 225.61 261.34 224.27 261.16 223.61 C 259.80 224.49 258.44 225.38 257.09 226.27 C 256.35 225.42 255.62 224.58 254.89 223.73 C 253.52 224.64 252.15 225.55 250.78 226.44 C 250.62 225.78 250.29 224.45 250.12 223.78 C 249.38 223.78 248.63 223.77 247.89 223.76 C 247.71 224.45 247.34 225.82 247.16 226.51 C 246.04 225.69 244.92 224.87 243.81 224.05 C 242.82 224.64 241.85 225.26 240.81 225.77 C 239.36 225.28 238.05 224.46 236.72 223.73 C 236.52 224.44 236.13 225.85 235.93 226.55 C 234.49 225.65 233.10 224.68 231.73 223.69 Z" />
</g>
<g id="#fee083ff">
<path fill="#fee083" opacity="1.00" d=" M 230.29 225.08 C 230.65 224.73 231.37 224.04 231.73 223.69 C 233.10 224.68 234.49 225.65 235.93 226.55 C 236.13 225.85 236.52 224.44 236.72 223.73 C 238.05 224.46 239.36 225.28 240.81 225.77 C 241.85 225.26 242.82 224.64 243.81 224.05 C 244.92 224.87 246.04 225.69 247.16 226.51 C 247.34 225.82 247.71 224.45 247.89 223.76 C 248.63 223.77 249.38 223.78 250.12 223.78 C 250.29 224.45 250.62 225.78 250.78 226.44 C 252.15 225.55 253.52 224.64 254.89 223.73 C 255.62 224.58 256.35 225.42 257.09 226.27 C 258.44 225.38 259.80 224.49 261.16 223.61 C 261.34 224.27 261.69 225.61 261.87 226.28 C 263.65 225.37 265.42 224.43 267.20 223.51 C 267.31 224.26 267.54 225.77 267.65 226.52 C 269.02 225.64 270.38 224.76 271.74 223.88 C 272.88 224.75 274.02 225.63 275.18 226.50 C 275.36 225.82 275.72 224.48 275.91 223.81 C 276.63 223.81 277.35 223.82 278.07 223.83 C 278.28 224.46 278.68 225.74 278.88 226.38 C 279.87 225.69 280.87 225.00 281.87 224.31 C 282.22 233.14 282.35 242.00 281.88 250.83 C 281.32 250.91 280.21 251.07 279.65 251.16 C 279.48 250.48 279.14 249.12 278.97 248.45 C 277.31 249.38 275.66 250.33 274.02 251.28 C 273.79 250.67 273.33 249.43 273.10 248.82 C 272.70 248.77 271.91 248.69 271.51 248.65 C 271.44 249.24 271.29 250.42 271.22 251.00 C 270.07 251.00 268.93 251.00 267.79 251.01 C 267.70 250.42 267.53 249.25 267.44 248.67 C 267.00 248.69 266.13 248.72 265.69 248.74 C 265.52 249.40 265.16 250.72 264.98 251.38 C 263.30 250.39 261.65 249.37 259.97 248.38 C 259.80 249.12 259.45 250.59 259.28 251.32 C 257.95 250.35 256.67 249.29 255.20 248.53 C 253.71 249.34 252.39 250.44 251.03 251.45 C 250.89 250.74 250.59 249.33 250.45 248.63 C 250.02 248.64 249.18 248.67 248.75 248.69 C 248.56 249.39 248.17 250.80 247.97 251.50 C 246.91 250.71 245.85 249.91 244.80 249.11 C 241.32 250.58 237.56 251.20 233.79 251.13 C 229.74 250.26 226.07 247.86 223.97 244.25 C 224.78 243.02 225.60 241.69 225.22 240.17 C 224.49 240.68 223.04 241.71 222.32 242.22 L 222.67 241.29 C 223.39 239.49 224.15 237.71 224.96 235.95 C 224.17 234.89 223.37 233.82 222.58 232.76 C 223.96 230.87 224.83 228.32 227.03 227.22 C 228.23 227.31 229.40 227.56 230.59 227.76 C 230.49 226.87 230.39 225.97 230.29 225.08 M 234.32 230.33 C 227.95 231.61 226.50 240.75 231.42 244.56 C 236.26 249.03 245.75 244.86 244.78 238.03 C 245.22 232.69 239.21 228.73 234.32 230.33 M 232.11 248.18 C 231.58 249.78 232.15 250.34 233.80 249.85 C 234.32 248.25 233.76 247.69 232.11 248.18 M 237.50 249.08 C 237.65 250.50 238.31 250.75 239.47 249.83 C 239.31 248.40 238.66 248.15 237.50 249.08 Z" />
</g>
<g id="#45474dff">
<path fill="#45474d" opacity="1.00" d=" M 234.32 230.33 C 239.21 228.73 245.22 232.69 244.78 238.03 C 245.75 244.86 236.26 249.03 231.42 244.56 C 226.50 240.75 227.95 231.61 234.32 230.33 M 234.33 234.16 C 231.43 235.65 231.50 240.13 233.90 242.05 C 236.61 243.71 240.84 242.38 241.28 238.95 C 242.11 235.28 237.48 231.96 234.33 234.16 Z" />
</g>
<g id="#a69766ff">
<path fill="#a69766" opacity="1.00" d=" M 222.67 241.29 C 221.74 238.51 221.90 235.57 222.58 232.76 C 223.37 233.82 224.17 234.89 224.96 235.95 C 224.15 237.71 223.39 239.49 222.67 241.29 Z" />
</g>
<g id="#fcfdfcff">
</g>
<g id="#b38f7bff">
<path fill="#b38f7b" opacity="1.00" d=" M 78.09 239.42 C 78.84 239.69 80.34 240.25 81.10 240.53 C 80.25 241.71 79.40 242.90 78.54 244.08 C 79.31 244.99 80.09 245.89 80.86 246.80 C 79.99 247.82 79.12 248.83 78.25 249.85 C 79.11 250.63 79.98 251.42 80.84 252.20 C 79.98 253.38 79.12 254.55 78.26 255.73 C 79.09 256.50 79.92 257.27 80.74 258.04 C 79.82 259.38 78.89 260.73 77.97 262.08 C 79.01 262.47 80.06 262.86 81.10 263.26 C 80.19 264.35 79.27 265.43 78.35 266.51 C 79.11 267.39 79.89 268.26 80.57 269.21 C 80.01 270.28 79.30 271.27 78.63 272.27 C 79.34 273.17 80.05 274.07 80.76 274.97 C 79.99 275.94 79.23 276.92 78.46 277.89 C 79.31 278.85 80.16 279.81 81.01 280.77 C 80.12 281.54 79.22 282.30 78.33 283.07 C 79.20 284.08 80.06 285.09 80.93 286.10 C 80.05 287.30 79.17 288.50 78.29 289.70 C 79.00 290.31 79.72 290.91 80.38 291.59 C 79.73 293.32 78.73 294.89 77.94 296.56 C 77.78 296.90 77.44 297.59 77.27 297.94 C 77.83 280.31 77.34 262.65 77.52 245.01 C 77.57 243.13 77.82 241.27 78.09 239.42 Z" />
</g>
<g id="#897b4dff">
<path fill="#897b4d" opacity="1.00" d=" M 232.11 248.18 C 233.76 247.69 234.32 248.25 233.80 249.85 C 232.15 250.34 231.58 249.78 232.11 248.18 Z" />
</g>
<g id="#826f55ff">
<path fill="#826f55" opacity="1.00" d=" M 237.50 249.08 C 238.66 248.15 239.31 248.40 239.47 249.83 C 238.31 250.75 237.65 250.50 237.50 249.08 Z" />
</g>
<g id="#e6bb7cff">
<path fill="#e6bb7c" opacity="1.00" d=" M 266.36 254.97 C 268.64 254.82 270.93 254.73 273.23 254.68 C 273.36 267.68 273.61 280.70 273.11 293.68 C 270.86 293.65 268.62 293.64 266.39 293.65 C 266.46 280.75 266.50 267.86 266.36 254.97 Z" />
</g>
<g id="#ae9873ff">
<path fill="#ae9873" opacity="1.00" d=" M 259.85 262.43 C 260.64 262.25 262.22 261.89 263.00 261.71 C 263.24 265.27 263.25 268.86 262.76 272.40 C 261.87 271.57 260.97 270.75 260.20 269.82 C 260.58 268.76 261.07 267.74 261.55 266.72 C 260.99 265.29 260.41 263.86 259.85 262.43 Z" />
</g>
<g id="#b09a72ff">
<path fill="#b09a72" opacity="1.00" d=" M 260.06 273.52 C 260.86 273.36 262.47 273.04 263.27 272.87 C 263.05 274.45 262.81 276.02 262.54 277.59 C 261.96 277.25 260.81 276.59 260.23 276.26 C 260.17 275.34 260.11 274.43 260.06 273.52 Z" />
</g>
<g id="#aa9472ff">
<path fill="#aa9472" opacity="1.00" d=" M 260.05 279.43 C 260.89 279.18 262.58 278.70 263.42 278.45 C 263.20 280.08 262.99 281.72 262.79 283.36 C 261.93 282.75 261.08 282.15 260.23 281.56 C 260.18 281.03 260.09 279.96 260.05 279.43 Z" />
</g>
<g id="#aa9270ff">
<path fill="#aa9270" opacity="1.00" d=" M 260.10 285.31 C 261.17 284.78 262.24 284.25 263.31 283.73 C 263.29 285.27 263.30 286.81 263.34 288.36 C 262.49 288.19 260.80 287.86 259.95 287.70 C 259.98 287.10 260.06 285.91 260.10 285.31 Z" />
</g>
<g id="#b49a76ff">
<path fill="#b49a76" opacity="1.00" d=" M 260.18 290.69 C 260.81 290.39 262.09 289.78 262.72 289.48 C 262.84 291.15 262.85 292.82 262.74 294.50 C 262.11 294.19 260.84 293.59 260.21 293.28 C 260.19 292.42 260.18 291.55 260.18 290.69 Z" />
</g>
<g id="#ac9273ff">
<path fill="#ac9273" opacity="1.00" d=" M 259.88 296.24 C 260.74 296.09 262.47 295.78 263.34 295.63 C 263.27 297.19 263.24 298.76 263.25 300.33 C 262.22 299.77 261.18 299.21 260.15 298.65 C 260.09 298.05 259.95 296.84 259.88 296.24 Z" />
</g>
<g id="#89734cff">
<path fill="#89734c" opacity="1.00" d=" M 260.07 302.54 C 260.97 301.92 261.87 301.29 262.78 300.66 C 262.94 303.82 264.35 308.13 261.43 310.44 C 256.35 311.72 250.95 310.99 245.76 310.79 C 246.90 309.91 248.03 309.02 249.16 308.12 C 250.11 308.75 251.05 309.38 252.01 310.01 C 252.98 309.36 253.94 308.71 254.92 308.07 C 255.91 308.80 256.90 309.54 257.89 310.28 C 259.30 308.89 260.72 307.51 262.16 306.16 C 261.46 304.95 260.76 303.75 260.07 302.54 Z" />
</g>
<g id="#aa724bff">
<path fill="#aa724b" opacity="1.00" d=" M 79.16 302.22 C 80.55 301.09 81.83 303.58 80.53 304.44 C 79.14 305.57 77.85 303.07 79.16 302.22 Z" />
</g>
<g id="#9c6f4dff">
<path fill="#9c6f4d" opacity="1.00" d=" M 77.94 306.65 C 79.62 307.61 81.29 308.60 82.94 309.60 C 84.14 309.19 85.32 308.70 86.57 308.47 C 87.65 309.07 88.57 309.91 89.56 310.66 C 85.91 310.98 81.42 312.22 78.34 309.63 C 78.24 308.88 78.04 307.40 77.94 306.65 Z" />
</g>
<g id="#8a7351ff">
<path fill="#8a7351" opacity="1.00" d=" M 90.22 307.76 C 91.60 308.57 92.97 309.40 94.33 310.24 C 95.28 309.54 96.23 308.83 97.17 308.14 C 98.13 308.75 99.08 309.38 100.03 310.01 C 100.98 309.35 101.93 308.69 102.88 308.04 C 103.89 308.71 104.89 309.40 105.91 310.07 C 107.10 309.34 108.27 308.60 109.47 307.89 C 109.66 308.64 110.03 310.15 110.22 310.90 C 103.54 311.26 96.86 310.94 90.18 311.17 C 90.19 310.31 90.21 308.61 90.22 307.76 Z" />
</g>
<g id="#8a7046ff">
<path fill="#8a7046" opacity="1.00" d=" M 112.31 308.38 C 114.92 309.11 117.75 309.97 120.22 308.30 C 121.12 308.87 122.02 309.46 122.92 310.05 C 123.67 309.39 124.42 308.75 125.17 308.10 C 126.12 308.73 127.08 309.37 128.03 310.01 C 129.02 309.36 130.01 308.71 131.00 308.06 C 131.99 308.72 132.97 309.37 133.95 310.03 C 134.96 309.36 135.98 308.69 137.00 308.03 C 137.95 308.71 138.91 309.39 139.87 310.08 C 140.62 309.42 141.37 308.77 142.12 308.12 C 143.09 308.74 144.06 309.38 145.04 310.01 C 146.02 309.36 147.01 308.70 148.00 308.05 C 148.98 308.70 149.96 309.36 150.95 310.01 C 151.91 309.39 152.87 308.76 153.84 308.15 C 154.59 308.79 155.35 309.43 156.11 310.08 C 157.07 309.39 158.03 308.72 158.99 308.04 C 159.99 308.69 161.00 309.35 162.00 310.01 C 163.00 309.36 164.00 308.70 165.00 308.05 C 165.97 308.71 166.94 309.38 167.92 310.05 C 168.69 309.42 169.45 308.79 170.23 308.17 C 171.18 308.76 172.14 309.36 173.10 309.97 C 174.06 309.32 175.03 308.68 176.00 308.04 C 177.00 308.69 177.99 309.35 178.99 310.01 C 179.92 309.43 180.85 308.86 181.78 308.30 C 182.87 308.78 183.96 309.27 185.05 309.73 C 186.66 308.23 188.51 308.84 190.22 309.76 C 191.16 309.19 192.08 308.61 193.02 308.05 C 194.00 308.71 194.99 309.38 195.98 310.05 C 196.93 309.40 197.88 308.75 198.84 308.11 C 199.60 308.79 200.36 309.47 201.13 310.16 C 202.12 309.48 203.11 308.80 204.10 308.13 C 205.06 308.75 206.02 309.38 206.99 310.01 C 207.96 309.38 208.94 308.75 209.92 308.12 C 210.89 308.80 211.86 309.48 212.84 310.16 C 213.63 309.48 214.43 308.81 215.23 308.13 C 216.18 308.74 217.13 309.35 218.09 309.96 C 219.05 309.32 220.02 308.69 220.99 308.05 C 221.99 308.71 223.00 309.38 224.01 310.05 C 224.95 309.40 225.89 308.76 226.84 308.13 C 227.60 308.77 228.36 309.42 229.12 310.07 C 230.31 309.41 231.49 308.75 232.68 308.09 C 233.54 308.98 234.41 309.87 235.28 310.75 C 233.52 310.90 231.75 311.02 229.99 311.05 C 190.96 310.98 151.94 311.03 112.91 311.02 C 112.76 310.36 112.46 309.04 112.31 308.38 Z" />
</g>
<g id="#8d7545ff">
<path fill="#8d7545" opacity="1.00" d=" M 236.72 307.89 C 238.16 308.53 239.60 309.20 241.04 309.87 C 242.19 309.21 243.35 308.54 244.51 307.89 C 244.69 308.71 245.06 310.35 245.25 311.18 C 242.08 310.97 238.91 310.98 235.75 311.22 C 235.99 310.39 236.48 308.72 236.72 307.89 Z" />
</g>
</svg>
