<?xml version="1.0" encoding="UTF-8" ?>
<!DOCTYPE svg PUBLIC "-//W3C//DTD SVG 1.1//EN" "http://www.w3.org/Graphics/SVG/1.1/DTD/svg11.dtd">
<svg width="449pt" height="335pt" viewBox="0 0 449 335" version="1.1" xmlns="http://www.w3.org/2000/svg">
<g id="#ffffffff">
</g>
<g id="#18395dff">
<path fill="#18395d" opacity="1.00" d=" M 214.13 19.03 L 215.17 18.52 C 215.52 18.70 216.22 19.06 216.57 19.25 C 216.77 23.27 217.44 27.61 216.14 31.48 C 215.62 31.40 214.59 31.24 214.07 31.16 C 213.64 27.15 213.51 23.03 214.13 19.03 Z" />
<path fill="#18395d" opacity="1.00" d=" M 198.46 24.38 C 199.72 22.45 201.60 24.21 201.22 26.00 C 201.17 36.06 201.58 46.15 201.00 56.19 C 200.44 56.26 199.32 56.38 198.76 56.45 C 197.81 53.05 198.39 49.46 198.26 45.97 C 198.41 38.78 197.96 31.56 198.46 24.38 Z" />
<path fill="#18395d" opacity="1.00" d=" M 182.49 33.69 C 184.94 33.32 185.07 38.46 182.87 39.19 C 180.66 38.63 180.53 34.49 182.49 33.69 Z" />
<path fill="#18395d" opacity="1.00" d=" M 214.15 39.06 L 215.21 38.48 C 215.55 38.68 216.24 39.09 216.58 39.30 C 216.71 44.98 217.49 50.98 216.14 56.52 C 215.62 56.42 214.57 56.23 214.05 56.13 C 213.68 50.47 213.46 44.69 214.15 39.06 Z" />
<path fill="#18395d" opacity="1.00" d=" M 229.67 43.85 C 232.58 42.55 232.77 49.10 229.92 49.28 C 228.49 48.03 228.16 44.81 229.67 43.85 Z" />
<path fill="#18395d" opacity="1.00" d=" M 181.49 44.37 C 182.76 42.46 184.70 44.24 184.25 46.05 C 184.29 51.09 184.53 56.15 184.05 61.17 C 182.44 61.88 181.56 61.48 181.42 59.99 C 181.20 54.80 181.10 49.56 181.49 44.37 Z" />
<path fill="#18395d" opacity="1.00" d=" M 229.12 53.92 C 230.56 52.98 232.16 54.28 231.75 55.85 C 231.68 59.38 232.39 63.12 231.16 66.49 C 230.64 66.41 229.59 66.24 229.06 66.15 C 228.63 62.10 228.54 57.96 229.12 53.92 Z" />
<path fill="#18395d" opacity="1.00" d=" M 208.73 67.74 C 210.32 62.81 217.82 62.13 220.28 66.67 C 222.49 71.31 220.44 76.69 221.66 81.54 C 222.71 84.32 227.53 84.03 227.90 80.99 C 228.37 78.22 228.19 73.99 231.95 73.62 C 235.99 73.41 236.49 77.91 236.39 80.92 C 250.88 88.54 262.61 101.44 268.22 116.87 C 271.13 124.26 272.23 132.20 272.50 140.10 C 271.41 141.54 270.35 143.01 269.52 144.62 C 251.48 180.10 233.40 215.57 215.35 251.04 C 220.74 251.00 226.59 250.70 231.28 253.85 C 237.66 257.72 241.46 265.85 239.29 273.16 C 245.77 272.59 253.86 275.46 258.90 270.00 C 263.19 265.77 261.80 259.39 262.01 254.00 C 262.19 242.34 261.64 230.65 262.27 219.01 C 265.37 218.14 268.63 218.65 271.80 218.61 C 272.32 216.86 271.18 213.38 273.98 213.63 C 283.99 213.41 294.01 213.65 304.02 213.53 C 305.93 213.61 307.96 213.28 309.77 214.08 C 310.64 219.33 309.47 225.57 304.91 228.84 C 302.80 230.61 300.09 231.23 297.45 231.69 C 296.63 232.39 295.81 233.10 295.00 233.81 C 295.01 236.86 295.00 239.91 295.03 242.97 C 295.09 249.31 295.09 255.66 295.04 262.01 C 294.71 269.89 296.08 278.22 292.73 285.64 C 288.92 294.58 279.83 300.98 270.10 301.41 C 247.72 302.44 225.34 301.26 202.96 301.56 C 195.78 301.37 187.86 302.65 181.53 298.41 C 178.87 296.98 177.25 293.60 173.94 293.61 C 166.24 293.00 159.02 288.43 155.24 281.69 C 153.91 279.37 153.17 276.77 151.90 274.43 C 151.70 273.26 151.64 272.10 151.72 270.93 C 152.04 269.68 152.04 268.44 151.73 267.21 C 151.68 258.14 151.82 249.07 151.75 240.00 C 151.59 237.21 153.25 234.75 153.25 232.00 C 153.33 224.65 153.19 217.30 153.26 209.95 C 153.24 207.87 153.90 205.87 154.37 203.87 C 153.18 202.14 151.71 200.35 152.00 198.10 C 152.05 192.78 151.80 187.45 152.16 182.14 C 152.55 179.03 155.25 177.12 158.00 176.18 C 153.10 166.06 148.02 156.03 143.10 145.92 C 142.13 143.85 140.92 141.92 139.53 140.11 C 139.76 133.68 140.51 127.26 142.33 121.07 C 144.64 113.50 148.21 106.28 153.06 100.02 C 159.60 91.29 168.39 84.35 178.24 79.70 C 178.40 76.75 177.79 73.63 178.82 70.79 C 180.05 67.87 184.83 68.06 185.82 71.07 C 187.04 76.13 185.51 81.48 186.67 86.55 C 187.71 89.06 191.61 89.10 192.81 86.69 C 194.17 81.93 192.13 76.68 194.05 72.05 C 196.06 67.65 202.96 67.43 205.28 71.66 C 207.87 75.32 204.15 81.10 208.02 83.90 C 208.75 78.54 207.50 73.02 208.73 67.74 M 211.38 69.26 C 210.56 74.08 211.53 79.03 210.75 83.87 C 209.96 86.60 205.62 87.03 204.19 84.66 C 202.34 80.88 204.51 76.18 202.26 72.59 C 200.51 70.25 197.00 71.64 196.41 74.22 C 195.41 79.12 197.05 84.36 194.96 89.09 C 192.73 91.17 189.39 92.48 186.57 90.70 C 183.72 89.30 183.25 85.93 183.12 83.12 C 183.52 79.13 183.47 75.11 183.04 71.12 C 179.39 73.20 181.56 78.17 180.90 81.58 C 159.02 90.99 143.02 113.37 142.69 137.37 C 147.49 134.63 152.10 130.67 157.92 130.65 C 164.10 131.29 167.71 137.96 173.85 138.56 C 179.56 137.38 183.07 131.41 188.97 130.68 C 195.80 130.32 199.61 137.71 206.02 138.66 C 212.14 137.71 215.80 131.08 222.13 130.66 C 228.75 130.60 232.39 138.01 238.79 138.56 C 244.54 137.43 248.06 131.38 253.99 130.70 C 259.86 130.58 264.50 134.61 269.31 137.38 C 269.03 117.04 257.48 97.51 240.42 86.65 C 238.08 85.21 235.69 83.84 233.42 82.29 C 233.34 80.22 233.23 78.17 233.02 76.11 C 229.97 77.62 231.69 81.58 229.78 83.88 C 227.43 87.39 221.41 87.08 219.37 83.41 C 216.86 78.46 219.89 72.30 217.19 67.54 C 215.35 64.85 212.04 66.60 211.38 69.26 M 142.34 141.01 C 148.09 152.66 153.81 164.32 159.64 175.93 C 162.05 175.93 164.49 176.06 166.76 176.97 C 167.38 179.02 167.76 181.14 167.97 183.29 C 169.65 184.01 171.97 184.51 172.25 186.70 C 173.13 191.44 173.06 196.41 172.15 201.15 C 175.40 208.03 178.87 214.81 182.22 221.65 C 183.88 222.27 186.61 222.61 186.37 225.03 C 186.44 228.81 186.63 233.25 190.22 235.50 C 190.20 232.55 191.08 229.60 194.40 229.15 C 187.76 200.65 180.52 172.29 173.67 143.84 C 173.53 140.67 169.58 141.05 167.68 139.36 C 163.65 137.26 160.02 132.22 154.97 133.95 C 150.34 135.44 146.49 138.57 142.34 141.01 M 174.66 141.69 C 181.36 168.93 188.06 196.17 194.65 223.44 C 194.68 215.18 194.03 206.94 194.26 198.69 C 190.40 194.35 192.43 188.13 192.07 182.89 C 191.88 180.06 194.51 178.77 196.91 178.39 C 197.17 176.32 196.50 173.76 198.19 172.15 C 200.01 170.44 202.74 171.18 205.00 170.92 C 205.03 161.19 205.16 151.47 205.25 141.74 C 199.51 140.24 195.72 134.92 190.04 133.50 C 184.16 134.40 180.34 140.00 174.66 141.69 M 206.73 141.77 C 206.68 151.54 206.55 161.31 206.48 171.08 C 208.77 172.15 211.42 173.35 212.05 176.08 C 213.40 180.93 212.53 186.06 212.79 191.03 C 213.07 193.86 212.13 196.65 210.07 198.63 C 210.05 199.09 210.01 200.01 209.99 200.46 C 210.58 200.85 211.75 201.64 212.34 202.03 C 212.80 213.44 212.31 224.90 212.57 236.32 C 220.78 204.78 228.61 173.13 236.80 141.58 C 231.47 139.63 227.69 134.39 222.02 133.49 C 216.30 134.91 212.49 140.25 206.73 141.77 M 252.23 134.19 C 247.52 136.65 243.73 140.92 238.27 141.81 C 229.97 174.17 221.80 206.56 213.51 238.93 C 212.43 243.11 212.27 247.48 212.75 251.77 C 213.64 250.60 214.48 249.41 215.17 248.12 C 233.30 212.40 251.52 176.72 269.67 141.01 C 266.02 138.78 262.53 136.25 258.63 134.48 C 256.62 133.73 254.23 132.96 252.23 134.19 M 200.06 175.80 C 199.90 178.90 200.02 182.00 200.02 185.10 C 202.03 185.39 206.80 184.48 205.15 187.96 C 202.58 188.23 199.78 188.69 197.32 187.71 C 196.95 185.65 196.93 183.54 196.72 181.47 C 196.34 181.73 195.58 182.25 195.20 182.51 C 194.79 186.03 194.95 189.60 195.06 193.13 C 195.00 194.76 196.58 195.74 197.42 196.95 C 197.47 198.31 197.51 199.68 197.56 201.05 C 200.70 201.05 203.83 201.05 206.97 201.05 C 207.00 199.69 207.03 198.34 207.07 196.99 C 207.95 195.72 209.60 194.68 209.47 192.97 C 209.50 188.00 209.74 183.01 209.27 178.06 C 209.14 174.85 205.51 174.11 202.95 174.09 C 201.81 173.90 199.70 174.09 200.06 175.80 M 155.47 182.06 C 154.56 187.00 155.12 192.09 155.01 197.10 C 154.61 199.17 156.23 200.56 157.43 201.96 C 157.48 203.32 157.51 204.68 157.56 206.05 C 160.69 206.05 163.83 206.05 166.98 206.05 C 167.00 204.70 167.03 203.34 167.07 202.00 C 171.12 198.51 169.13 192.68 169.38 188.01 C 169.03 187.53 168.34 186.56 168.00 186.07 C 167.61 188.35 167.59 190.69 167.07 192.96 C 164.51 193.32 161.80 193.56 159.30 192.78 C 157.80 189.51 162.62 190.41 164.45 190.08 C 164.42 186.40 164.61 182.73 164.29 179.07 C 161.33 179.31 156.77 178.56 155.47 182.06 M 169.87 202.27 C 171.78 209.75 171.27 217.47 171.22 225.13 C 173.54 224.12 175.72 225.00 176.78 227.25 C 178.04 227.30 179.31 227.38 180.57 227.47 C 180.52 225.25 181.33 222.84 180.14 220.80 C 178.11 216.60 175.93 212.48 173.95 208.26 C 172.85 206.10 171.98 203.67 169.87 202.27 M 197.54 204.19 C 197.62 217.49 197.57 230.80 197.57 244.10 C 198.81 244.67 200.15 245.11 201.24 245.97 C 202.14 253.02 201.12 260.17 201.81 267.25 C 202.44 271.31 199.40 274.57 198.28 278.27 C 199.99 279.47 201.74 281.20 204.03 280.80 C 207.47 280.69 209.68 277.19 209.42 273.98 C 209.47 250.71 209.42 227.43 209.43 204.16 C 205.47 204.19 201.51 204.19 197.54 204.19 M 156.33 209.17 C 156.49 217.40 156.21 225.63 156.43 233.86 C 156.31 236.22 158.75 237.04 160.47 237.91 C 160.52 233.97 160.10 229.99 160.77 226.09 C 161.74 224.76 163.36 224.04 164.94 224.79 C 166.67 225.88 166.39 228.10 166.81 229.84 C 167.16 229.78 167.87 229.66 168.22 229.60 C 168.22 222.78 168.24 215.97 168.20 209.16 C 164.24 209.19 160.28 209.19 156.33 209.17 M 275.66 216.83 C 275.67 220.62 275.67 224.42 275.66 228.21 C 282.76 228.11 289.87 228.27 296.98 228.17 C 299.94 228.35 302.53 226.56 304.42 224.44 C 306.48 222.46 306.25 219.40 306.98 216.84 C 296.54 216.86 286.10 216.87 275.66 216.83 M 265.66 221.83 C 265.67 225.59 265.67 229.35 265.67 233.12 C 267.78 233.10 269.89 233.10 272.00 233.09 C 272.00 229.35 272.00 225.61 272.00 221.86 C 269.88 221.85 267.77 221.84 265.66 221.83 M 275.21 231.78 C 275.04 241.84 275.27 251.90 275.10 261.96 C 275.37 269.24 269.27 276.19 261.95 276.53 C 256.36 276.78 250.77 276.56 245.18 276.58 C 245.14 283.89 245.17 291.20 245.16 298.52 C 252.43 298.42 259.71 298.50 266.98 298.49 C 269.02 298.42 271.14 298.46 273.09 297.73 L 273.82 298.28 L 274.85 297.94 L 275.10 297.07 C 278.15 296.98 280.79 294.95 283.15 293.19 C 288.73 288.83 291.82 281.86 291.92 274.84 C 292.15 260.52 291.91 246.19 292.03 231.87 C 286.42 231.80 280.81 231.86 275.21 231.78 M 265.15 236.59 C 265.05 245.45 265.35 254.32 265.03 263.18 C 264.98 267.51 262.37 271.18 259.22 273.92 C 262.89 273.41 266.89 272.55 269.27 269.42 C 271.95 266.67 271.97 262.63 272.02 259.04 C 272.01 251.57 272.00 244.10 272.00 236.63 C 269.72 236.62 267.43 236.60 265.15 236.59 M 166.77 252.93 C 165.76 254.92 163.93 255.67 161.75 255.45 C 160.59 256.69 159.29 257.79 158.14 259.04 C 156.85 262.97 159.62 268.56 155.07 270.93 C 155.53 281.29 164.52 290.41 174.94 290.67 C 184.89 291.44 194.09 284.08 196.57 274.59 C 195.86 274.23 194.46 273.50 193.75 273.13 C 194.97 271.26 197.44 271.29 198.98 269.87 C 199.24 268.53 198.64 266.73 197.06 266.66 C 194.86 266.42 193.94 270.28 191.70 269.05 C 191.76 266.33 193.36 263.84 193.13 261.04 C 192.14 260.01 191.18 258.97 190.25 257.89 C 188.05 258.29 186.34 257.36 185.29 255.44 C 183.09 255.68 181.25 254.95 180.27 252.91 C 178.85 252.77 177.44 252.59 176.03 252.39 C 174.37 252.78 172.66 252.82 171.01 252.38 C 169.60 252.59 168.19 252.77 166.77 252.93 M 212.82 254.69 C 212.85 260.41 212.84 266.13 212.83 271.86 C 220.42 273.73 228.61 273.71 236.24 272.09 C 236.81 267.30 236.02 262.16 231.97 259.05 C 227.31 253.28 219.31 254.86 212.82 254.69 M 210.74 285.85 C 205.96 289.13 199.40 288.35 194.87 285.00 C 190.99 289.35 185.79 292.11 180.29 293.84 C 183.95 296.61 188.31 298.62 193.00 298.46 C 207.82 298.51 222.65 298.45 237.47 298.48 C 237.46 291.19 237.46 283.90 237.47 276.61 C 230.53 276.61 223.59 276.65 216.65 276.59 C 215.62 280.14 214.02 283.83 210.74 285.85 Z" />
<path fill="#18395d" opacity="1.00" d=" M 304.81 163.82 C 305.41 163.81 306.60 163.80 307.20 163.79 C 307.73 167.91 307.69 172.11 307.24 176.24 C 306.62 176.22 305.39 176.18 304.77 176.16 C 304.33 172.07 304.31 167.91 304.81 163.82 Z" />
<path fill="#18395d" opacity="1.00" d=" M 295.59 178.75 C 298.64 177.97 298.28 185.36 295.03 183.86 C 294.41 182.41 293.87 179.20 295.59 178.75 Z" />
<path fill="#18395d" opacity="1.00" d=" M 304.81 183.79 C 305.41 183.80 306.61 183.82 307.21 183.83 C 307.73 189.62 307.70 195.52 307.22 201.32 C 306.61 201.29 305.38 201.24 304.77 201.22 C 304.35 195.43 304.28 189.57 304.81 183.79 Z" />
<path fill="#18395d" opacity="1.00" d=" M 294.80 188.83 C 295.40 188.82 296.60 188.80 297.20 188.79 C 297.75 194.54 297.68 200.38 297.26 206.13 C 296.64 206.14 295.39 206.16 294.77 206.17 C 294.34 200.41 294.30 194.58 294.80 188.83 Z" />
<path fill="#18395d" opacity="1.00" d=" M 163.54 267.75 C 166.25 266.82 167.66 271.54 164.90 272.22 C 161.85 273.83 160.23 268.17 163.54 267.75 Z" />
<path fill="#18395d" opacity="1.00" d=" M 175.57 267.74 C 177.42 267.22 179.05 269.43 178.13 271.08 C 177.65 272.89 174.40 272.90 173.90 271.10 C 173.18 269.80 174.00 267.84 175.57 267.74 Z" />
<path fill="#18395d" opacity="1.00" d=" M 174.11 275.15 C 178.66 273.55 184.36 272.49 188.61 275.38 C 192.01 277.93 188.77 283.60 185.01 283.36 C 181.10 283.51 177.36 284.76 173.95 286.64 C 171.58 285.93 168.43 285.74 167.41 283.04 C 166.67 278.92 170.83 276.40 174.11 275.15 Z" />
</g>
<g id="#a47dffff">
<path fill="#a47dff" opacity="1.00" d=" M 211.38 69.26 C 212.04 66.60 215.35 64.85 217.19 67.54 C 219.89 72.30 216.86 78.46 219.37 83.41 C 221.41 87.08 227.43 87.39 229.78 83.88 C 231.69 81.58 229.97 77.62 233.02 76.11 C 233.23 78.17 233.34 80.22 233.42 82.29 C 235.69 83.84 238.08 85.21 240.42 86.65 C 257.48 97.51 269.03 117.04 269.31 137.38 C 264.50 134.61 259.86 130.58 253.99 130.70 C 248.06 131.38 244.54 137.43 238.79 138.56 C 232.39 138.01 228.75 130.60 222.13 130.66 C 215.80 131.08 212.14 137.71 206.02 138.66 C 199.61 137.71 195.80 130.32 188.97 130.68 C 183.07 131.41 179.56 137.38 173.85 138.56 C 167.71 137.96 164.10 131.29 157.92 130.65 C 152.10 130.67 147.49 134.63 142.69 137.37 C 143.02 113.37 159.02 90.99 180.90 81.58 C 181.56 78.17 179.39 73.20 183.04 71.12 C 183.47 75.11 183.52 79.13 183.12 83.12 C 168.20 93.77 159.84 111.62 157.70 129.49 C 163.55 131.08 167.71 135.81 173.20 138.08 C 178.97 136.48 183.05 131.19 188.94 129.57 C 189.68 115.95 191.18 102.24 194.96 89.09 C 197.05 84.36 195.41 79.12 196.41 74.22 C 197.00 71.64 200.51 70.25 202.26 72.59 C 204.51 76.18 202.34 80.88 204.19 84.66 C 205.62 87.03 209.96 86.60 210.75 83.87 C 211.53 79.03 210.56 74.08 211.38 69.26 M 215.26 67.20 C 214.09 67.86 212.91 68.50 211.75 69.17 C 211.74 72.11 211.74 75.05 211.79 77.99 C 216.75 86.78 218.77 96.82 220.67 106.63 C 221.91 114.32 221.50 122.16 223.04 129.79 C 228.89 130.95 232.76 136.03 238.19 138.14 C 244.12 136.70 247.95 130.62 254.21 129.80 C 251.99 116.88 247.82 103.94 239.57 93.55 C 236.97 89.91 233.66 86.83 229.91 84.39 C 229.17 85.21 228.44 86.03 227.71 86.85 C 224.75 86.76 220.77 87.23 219.09 84.16 C 216.94 79.62 219.05 74.34 217.53 69.65 C 217.01 68.63 216.82 66.82 215.26 67.20 M 199.62 72.34 C 194.87 73.97 197.25 80.11 196.86 83.83 C 198.63 80.81 200.23 77.57 203.03 75.34 C 202.09 74.26 201.56 71.48 199.62 72.34 Z" />
<path fill="#a47dff" opacity="1.00" d=" M 275.66 216.83 C 286.10 216.87 296.54 216.86 306.98 216.84 C 306.25 219.40 306.48 222.46 304.42 224.44 C 302.53 226.56 299.94 228.35 296.98 228.17 C 289.87 228.27 282.76 228.11 275.66 228.21 C 275.67 224.42 275.67 220.62 275.66 216.83 Z" />
<path fill="#a47dff" opacity="1.00" d=" M 265.66 221.83 C 267.77 221.84 269.88 221.85 272.00 221.86 C 272.00 225.61 272.00 229.35 272.00 233.09 C 269.89 233.10 267.78 233.10 265.67 233.12 C 265.67 229.35 265.67 225.59 265.66 221.83 Z" />
<path fill="#a47dff" opacity="1.00" d=" M 212.82 254.69 C 219.31 254.86 227.31 253.28 231.97 259.05 C 236.02 262.16 236.81 267.30 236.24 272.09 C 228.61 273.71 220.42 273.73 212.83 271.86 C 212.84 266.13 212.85 260.41 212.82 254.69 Z" />
</g>
<g id="#11ecdbff">
<path fill="#11ecdb" opacity="1.00" d=" M 215.26 67.20 C 216.82 66.82 217.01 68.63 217.53 69.65 C 219.05 74.34 216.94 79.62 219.09 84.16 C 220.77 87.23 224.75 86.76 227.71 86.85 C 228.44 86.03 229.17 85.21 229.91 84.39 C 233.66 86.83 236.97 89.91 239.57 93.55 C 247.82 103.94 251.99 116.88 254.21 129.80 C 247.95 130.62 244.12 136.70 238.19 138.14 C 232.76 136.03 228.89 130.95 223.04 129.79 C 221.50 122.16 221.91 114.32 220.67 106.63 C 218.77 96.82 216.75 86.78 211.79 77.99 C 211.74 75.05 211.74 72.11 211.75 69.17 C 212.91 68.50 214.09 67.86 215.26 67.20 Z" />
<path fill="#11ecdb" opacity="1.00" d=" M 199.62 72.34 C 201.56 71.48 202.09 74.26 203.03 75.34 C 200.23 77.57 198.63 80.81 196.86 83.83 C 197.25 80.11 194.87 73.97 199.62 72.34 Z" />
<path fill="#11ecdb" opacity="1.00" d=" M 157.70 129.49 C 159.84 111.62 168.20 93.77 183.12 83.12 C 183.25 85.93 183.72 89.30 186.57 90.70 C 189.39 92.48 192.73 91.17 194.96 89.09 C 191.18 102.24 189.68 115.95 188.94 129.57 C 183.05 131.19 178.97 136.48 173.20 138.08 C 167.71 135.81 163.55 131.08 157.70 129.49 Z" />
<path fill="#11ecdb" opacity="1.00" d=" M 197.54 204.19 C 201.51 204.19 205.47 204.19 209.43 204.16 C 209.42 227.43 209.47 250.71 209.42 273.98 C 209.68 277.19 207.47 280.69 204.03 280.80 C 201.74 281.20 199.99 279.47 198.28 278.27 C 199.40 274.57 202.44 271.31 201.81 267.25 C 201.12 260.17 202.14 253.02 201.24 245.97 C 200.15 245.11 198.81 244.67 197.57 244.10 C 197.57 230.80 197.62 217.49 197.54 204.19 Z" />
<path fill="#11ecdb" opacity="1.00" d=" M 156.33 209.17 C 160.28 209.19 164.24 209.19 168.20 209.16 C 168.24 215.97 168.22 222.78 168.22 229.60 C 167.87 229.66 167.16 229.78 166.81 229.84 C 166.39 228.10 166.67 225.88 164.94 224.79 C 163.36 224.04 161.74 224.76 160.77 226.09 C 160.10 229.99 160.52 233.97 160.47 237.91 C 158.75 237.04 156.31 236.22 156.43 233.86 C 156.21 225.63 156.49 217.40 156.33 209.17 Z" />
<path fill="#11ecdb" opacity="1.00" d=" M 275.21 231.78 C 280.81 231.86 286.42 231.80 292.03 231.87 C 291.91 246.19 292.15 260.52 291.92 274.84 C 291.82 281.86 288.73 288.83 283.15 293.19 C 280.79 294.95 278.15 296.98 275.10 297.07 C 274.60 297.24 273.59 297.57 273.09 297.73 C 271.14 298.46 269.02 298.42 266.98 298.49 C 259.71 298.50 252.43 298.42 245.16 298.52 C 245.17 291.20 245.14 283.89 245.18 276.58 C 250.77 276.56 256.36 276.78 261.95 276.53 C 269.27 276.19 275.37 269.24 275.10 261.96 C 275.27 251.90 275.04 241.84 275.21 231.78 Z" />
<path fill="#11ecdb" opacity="1.00" d=" M 265.15 236.59 C 267.43 236.60 269.72 236.62 272.00 236.63 C 272.00 244.10 272.01 251.57 272.02 259.04 C 271.97 262.63 271.95 266.67 269.27 269.42 C 266.89 272.55 262.89 273.41 259.22 273.92 C 262.37 271.18 264.98 267.51 265.03 263.18 C 265.35 254.32 265.05 245.45 265.15 236.59 Z" />
<path fill="#11ecdb" opacity="1.00" d=" M 210.74 285.85 C 214.02 283.83 215.62 280.14 216.65 276.59 C 223.59 276.65 230.53 276.61 237.47 276.61 C 237.46 283.90 237.46 291.19 237.47 298.48 C 222.65 298.45 207.82 298.51 193.00 298.46 C 188.31 298.62 183.95 296.61 180.29 293.84 C 185.79 292.11 190.99 289.35 194.87 285.00 C 199.40 288.35 205.96 289.13 210.74 285.85 Z" />
</g>
<g id="#fefffeff">
<path fill="#fefffe" opacity="1.00" d=" M 128.07 99.12 C 129.58 96.41 131.13 92.41 134.96 92.87 C 138.61 92.38 141.42 94.82 143.40 97.57 C 146.70 98.03 149.96 98.76 153.06 100.02 C 148.21 106.28 144.64 113.50 142.33 121.07 C 134.56 120.79 126.76 121.32 118.99 120.89 C 114.26 120.66 111.12 114.77 113.75 110.76 C 116.06 108.01 119.72 106.64 121.52 103.38 C 122.82 100.84 125.58 100.01 128.07 99.12 Z" />
<path fill="#fefffe" opacity="1.00" d=" M 200.06 175.80 C 199.70 174.09 201.81 173.90 202.95 174.09 C 205.51 174.11 209.14 174.85 209.27 178.06 C 209.74 183.01 209.50 188.00 209.47 192.97 C 209.60 194.68 207.95 195.72 207.07 196.99 C 207.03 198.34 207.00 199.69 206.97 201.05 C 203.83 201.05 200.70 201.05 197.56 201.05 C 197.51 199.68 197.47 198.31 197.42 196.95 C 196.58 195.74 195.00 194.76 195.06 193.13 C 194.95 189.60 194.79 186.03 195.20 182.51 C 195.58 182.25 196.34 181.73 196.72 181.47 C 196.93 183.54 196.95 185.65 197.32 187.71 C 199.78 188.69 202.58 188.23 205.15 187.96 C 206.80 184.48 202.03 185.39 200.02 185.10 C 200.02 182.00 199.90 178.90 200.06 175.80 Z" />
<path fill="#fefffe" opacity="1.00" d=" M 155.47 182.06 C 156.77 178.56 161.33 179.31 164.29 179.07 C 164.61 182.73 164.42 186.40 164.45 190.08 C 162.62 190.41 157.80 189.51 159.30 192.78 C 161.80 193.56 164.51 193.32 167.07 192.96 C 167.59 190.69 167.61 188.35 168.00 186.07 C 168.34 186.56 169.03 187.53 169.38 188.01 C 169.13 192.68 171.12 198.51 167.07 202.00 C 167.03 203.34 167.00 204.70 166.98 206.05 C 163.83 206.05 160.69 206.05 157.56 206.05 C 157.51 204.68 157.48 203.32 157.43 201.96 C 156.23 200.56 154.61 199.17 155.01 197.10 C 155.12 192.09 154.56 187.00 155.47 182.06 Z" />
<path fill="#fefffe" opacity="1.00" d=" M 76.51 201.59 C 77.74 196.79 80.71 191.74 86.13 191.11 C 91.62 190.11 95.61 194.61 98.31 198.73 C 102.15 199.02 106.65 198.43 109.66 201.37 C 112.73 203.90 113.38 208.01 113.79 211.73 C 116.90 213.62 120.68 215.47 121.66 219.32 C 123.28 223.70 121.17 228.86 117.05 230.98 C 110.77 233.96 103.65 233.08 97.00 232.17 C 85.99 231.70 74.96 232.22 63.95 231.97 C 57.13 232.07 52.01 223.58 55.62 217.66 C 57.06 213.94 61.07 212.72 64.47 211.47 C 65.60 209.01 66.48 206.35 68.24 204.24 C 70.32 201.92 73.71 202.15 76.51 201.59 Z" />
<path fill="#fefffe" opacity="1.00" d=" M 324.34 222.46 C 324.58 215.66 329.78 210.03 336.13 208.14 C 341.27 207.07 346.97 208.58 350.72 212.32 C 352.62 214.34 353.65 216.95 354.87 219.40 C 361.00 218.52 368.14 218.38 372.66 223.36 C 376.76 227.00 376.89 232.63 377.42 237.66 C 381.05 239.88 385.40 241.43 387.60 245.38 C 391.92 251.28 389.60 259.83 384.20 264.19 C 380.99 266.63 376.89 267.36 372.99 267.86 C 366.96 268.68 361.01 266.84 354.98 266.99 C 338.65 267.16 322.31 266.87 305.98 267.03 C 301.66 267.36 298.20 264.51 295.04 262.01 C 295.09 255.66 295.09 249.31 295.03 242.97 C 298.31 239.76 302.69 238.46 306.89 236.99 C 308.58 233.38 308.97 228.92 312.25 226.24 C 315.50 223.18 320.15 222.98 324.34 222.46 Z" />
<path fill="#fefffe" opacity="1.00" d=" M 166.77 252.93 C 168.19 252.77 169.60 252.59 171.01 252.38 C 172.66 252.82 174.37 252.78 176.03 252.39 C 177.44 252.59 178.85 252.77 180.27 252.91 C 181.25 254.95 183.09 255.68 185.29 255.44 C 186.34 257.36 188.05 258.29 190.25 257.89 C 191.18 258.97 192.14 260.01 193.13 261.04 C 193.36 263.84 191.76 266.33 191.70 269.05 C 193.94 270.28 194.86 266.42 197.06 266.66 C 198.64 266.73 199.24 268.53 198.98 269.87 C 197.44 271.29 194.97 271.26 193.75 273.13 C 194.46 273.50 195.86 274.23 196.57 274.59 C 194.09 284.08 184.89 291.44 174.94 290.67 C 164.52 290.41 155.53 281.29 155.07 270.93 C 159.62 268.56 156.85 262.97 158.14 259.04 C 159.29 257.79 160.59 256.69 161.75 255.45 C 163.93 255.67 165.76 254.92 166.77 252.93 M 163.54 267.75 C 160.23 268.17 161.85 273.83 164.90 272.22 C 167.66 271.54 166.25 266.82 163.54 267.75 M 175.57 267.74 C 174.00 267.84 173.18 269.80 173.90 271.10 C 174.40 272.90 177.65 272.89 178.13 271.08 C 179.05 269.43 177.42 267.22 175.57 267.74 M 174.11 275.15 C 170.83 276.40 166.67 278.92 167.41 283.04 C 168.43 285.74 171.58 285.93 173.95 286.64 C 177.36 284.76 181.10 283.51 185.01 283.36 C 188.77 283.60 192.01 277.93 188.61 275.38 C 184.36 272.49 178.66 273.55 174.11 275.15 Z" />
</g>
<g id="#75a1d9ff">
<path fill="#75a1d9" opacity="1.00" d=" M 273.09 297.73 C 273.59 297.57 274.60 297.24 275.10 297.07 L 274.85 297.94 L 273.82 298.28 L 273.09 297.73 Z" />
</g>
</svg>
